<?xml version="1.0" standalone="no"?><!DOCTYPE svg PUBLIC "-//W3C//DTD SVG 1.1//EN" "http://www.w3.org/Graphics/SVG/1.1/DTD/svg11.dtd"><svg height="238" node-id="1" sillyvg="true" template-height="238" template-width="256" version="1.1" viewBox="0 0 256 238" width="256" xmlns="http://www.w3.org/2000/svg" xmlns:xlink="http://www.w3.org/1999/xlink"><defs node-id="549"></defs><g node-id="1272"><g node-id="1274"><g node-id="1281"><g node-id="1345"><path d="M 248.10 108.70 L 247.90 102.80 L 247.20 97.10 L 246.00 91.60 L 244.50 86.20 L 242.50 81.00 L 240.10 76.00 L 237.40 71.20 L 234.30 66.70 L 230.90 62.40 L 227.20 58.40 L 223.20 54.70 L 218.90 51.30 L 214.40 48.20 L 209.60 45.50 L 204.60 43.20 L 199.30 41.20 L 194.00 39.60 L 188.40 38.50 L 182.70 37.80 L 175.00 37.60 L 171.60 32.50 L 167.90 27.80 L 163.80 23.40 L 159.30 19.30 L 154.50 15.60 L 149.40 12.40 L 144.10 9.60 L 138.40 7.20 L 132.50 5.30 L 126.50 3.90 L 120.20 3.10 L 113.60 2.80 L 107.70 3.00 L 102.00 3.70 L 96.50 4.80 L 91.10 6.40 L 85.80 8.40 L 80.80 10.70 L 76.10 13.40 L 71.50 16.50 L 67.20 19.90 L 63.20 23.60 L 59.50 27.60 L 56.10 31.90 L 53.00 36.40 L 50.30 41.20 L 47.90 46.20 L 45.90 51.40 L 44.40 56.80 L 43.30 62.30 L 42.60 68.00 L 42.00 78.90 L 41.10 82.30 L 39.70 85.60 L 35.60 91.90 L 33.00 95.00 L 19.80 109.20 L 13.00 117.70 L 8.90 125.00 L 7.50 128.90 L 6.60 132.90 L 6.30 137.30 L 6.50 143.20 L 7.20 148.90 L 8.30 154.40 L 9.90 159.80 L 11.90 165.00 L 14.20 170.00 L 17.00 174.80 L 20.00 179.30 L 23.50 183.60 L 27.20 187.60 L 31.20 191.30 L 35.50 194.70 L 40.00 197.80 L 44.80 200.50 L 49.80 202.80 L 55.10 204.80 L 60.40 206.40 L 66.00 207.50 L 71.70 208.20 L 77.60 208.40 L 84.20 208.10 L 89.00 208.40 L 93.20 209.00 L 96.80 210.00 L 100.30 211.40 L 106.40 214.80 L 110.50 217.90 L 121.60 227.30 L 125.40 230.00 L 129.50 232.10 L 132.40 233.10 L 135.60 233.80 L 139.30 234.00 L 150.00 233.20 L 160.20 230.90 L 165.10 229.20 L 174.30 224.80 L 178.70 222.20 L 184.10 218.20 L 189.10 213.70 L 193.70 208.80 L 196.90 204.80 L 202.20 196.20 L 204.50 191.60 L 208.00 182.00 L 210.00 171.60 L 214.00 163.90 L 220.20 155.30 L 236.90 136.50 L 242.60 128.30 L 246.00 121.10 L 247.10 117.30 L 247.80 113.20 L 248.10 108.70 Z" fill="#bddbff" fill-opacity="0.39" fill-rule="nonzero" group-id="1,3,10,74" node-id="555" stroke="none" target-height="231.2" target-width="241.8" target-x="6.3" target-y="2.8"></path></g></g></g><g node-id="1276"><g node-id="1282"><g node-id="1346"><path d="M 11.80 2.20 L 65.70 2.20 L 65.70 44.30 L 11.80 44.30 Z" fill="#ffffff" fill-rule="nonzero" group-id="1,5,11,75" node-id="566" stroke="none" target-height="42.1" target-width="53.899998" target-x="11.8" target-y="2.2"></path><path d="M 65.70 45.80 L 11.80 45.80 L 10.70 45.30 L 10.30 44.30 L 10.30 2.20 L 10.70 1.20 L 11.80 0.70 L 65.70 0.70 L 66.80 1.20 L 67.20 2.20 L 67.20 44.30 L 66.80 45.30 L 65.70 45.80 Z M 13.30 42.80 L 64.20 42.80 L 64.20 3.70 L 13.30 3.70 L 13.30 42.80 Z" fill="#ccccde" fill-rule="nonzero" group-id="1,5,11,75" node-id="568" stroke="none" target-height="45.1" target-width="56.899998" target-x="10.3" target-y="0.7"></path></g><g node-id="1347"><path d="M 16.80 6.80 L 60.20 6.80 L 60.20 39.40 L 16.80 39.40 Z" fill="#d6f1ff" fill-rule="nonzero" group-id="1,5,11,76" node-id="572" stroke="none" target-height="32.600002" target-width="43.4" target-x="16.8" target-y="6.8"></path></g><g node-id="1348"><g node-id="1352"><path d="M 16.80 20.10 L 19.30 18.40 L 24.80 17.30 L 26.00 15.80 L 27.40 15.00 L 38.20 13.70 L 40.60 13.90 L 48.70 16.10 L 54.20 16.80 L 60.20 17.20 L 60.30 25.70 L 16.80 28.10 L 16.80 20.10 Z" fill="#000000" fill-opacity="0.0376" fill-rule="nonzero" group-id="1,5,11,77,81" node-id="578" stroke="none" target-height="14.400001" target-width="43.5" target-x="16.8" target-y="13.7"></path></g><path d="M 37.40 21.50 L 16.80 33.60 L 16.80 39.30 L 60.30 39.30 Z" fill="#ffe5b0" fill-opacity="0.47" fill-rule="nonzero" group-id="1,5,11,77" node-id="581" stroke="none" target-height="17.8" target-width="43.5" target-x="16.8" target-y="21.5"></path><path d="M 16.80 26.20 L 20.40 24.40 L 25.60 22.90 L 28.00 23.10 L 28.40 24.00 L 27.30 26.10 L 24.60 29.00 L 16.80 33.60 L 16.80 26.20 Z" fill="#ffe5b0" fill-opacity="0.47" fill-rule="nonzero" group-id="1,5,11,77" node-id="583" stroke="none" target-height="10.699999" target-width="11.6" target-x="16.8" target-y="22.9"></path><path d="M 27.10 22.90 L 27.50 23.30 L 27.30 23.70 L 24.50 25.20 L 23.20 27.00 L 23.20 28.60 L 23.80 29.00 L 24.70 29.00 L 26.40 28.40 L 31.40 25.50 L 37.40 21.50 L 34.60 22.70 L 32.40 23.10 L 30.00 23.20 L 27.10 22.90 Z" fill="#f2d9a6" fill-opacity="0.47" fill-rule="nonzero" group-id="1,5,11,77" node-id="585" stroke="none" target-height="7.5" target-width="14.200001" target-x="23.2" target-y="21.5"></path><path d="M 43.60 21.60 L 47.50 20.30 L 50.90 19.80 L 56.40 19.90 L 60.10 20.50 L 60.30 23.80 L 43.60 21.60 Z" fill="#ffe5b0" fill-opacity="0.47" fill-rule="nonzero" group-id="1,5,11,77" node-id="587" stroke="none" target-height="4" target-width="16.7" target-x="43.6" target-y="19.8"></path><path d="M 26.40 28.40 L 32.70 24.70 L 29.50 24.10 L 27.10 22.90 L 27.50 23.30 L 27.30 23.70 L 24.50 25.20 L 23.70 26.00 L 23.10 27.90 L 23.20 28.60 L 23.80 29.00 L 24.70 29.00 L 26.40 28.40 Z" fill="#d6c093" fill-opacity="0.47" fill-rule="nonzero" group-id="1,5,11,77" node-id="589" stroke="none" target-height="6.1000004" target-width="9.6" target-x="23.1" target-y="22.9"></path><g node-id="1353"><path d="M 45.70 20.70 L 53.60 21.20 L 60.20 22.10 L 60.30 23.80 L 45.70 20.70 Z" fill="#d6c093" fill-opacity="0.19739999" fill-rule="nonzero" group-id="1,5,11,77,82" node-id="593" stroke="none" target-height="3.0999985" target-width="14.599998" target-x="45.7" target-y="20.7"></path></g><g node-id="1354"><path d="M 41.90 20.40 L 38.70 20.70 L 37.70 21.20 L 37.20 21.90 L 37.40 23.30 L 39.60 26.00 L 47.60 31.80 L 60.30 39.30 L 60.30 23.80 L 47.00 20.90 L 41.90 20.40 Z" fill="#d6c093" fill-opacity="0.47" fill-rule="nonzero" group-id="1,5,11,77,83" node-id="598" stroke="none" target-height="18.9" target-width="23.099998" target-x="37.2" target-y="20.4"></path></g><g node-id="1355"><path d="M 16.80 34.70 L 23.20 32.50 L 25.90 31.20 L 28.80 29.50 L 31.40 27.40 L 33.70 24.80 L 30.70 28.40 L 24.80 33.00 L 16.80 37.20 L 16.80 34.70 Z" fill="#d6c093" fill-opacity="0.1269" fill-rule="nonzero" group-id="1,5,11,77,84" node-id="603" stroke="none" target-height="12.400002" target-width="16.900002" target-x="16.8" target-y="24.8"></path></g><g node-id="1356"><path d="M 39.00 25.50 L 46.70 32.50 L 50.50 37.20 L 51.50 39.30 L 60.30 39.30 L 39.00 25.50 Z" fill="#d6c093" fill-opacity="0.1175" fill-rule="nonzero" group-id="1,5,11,77,85" node-id="608" stroke="none" target-height="13.799999" target-width="21.3" target-x="39" target-y="25.5"></path></g><g node-id="1357"><path d="M 40.60 25.90 L 39.30 23.50 L 39.40 22.80 L 40.00 22.00 L 42.40 21.20 L 47.90 21.10 L 40.80 20.40 L 38.70 20.70 L 37.70 21.20 L 37.10 22.50 L 38.20 24.60 L 39.80 26.20 L 48.90 32.60 L 44.10 29.20 L 40.60 25.90 Z M 60.00 23.70 L 60.00 39.10 L 58.80 38.40 L 60.30 39.30 L 60.30 23.80 L 60.00 23.70 Z" fill="#c7b289" fill-opacity="0.47" fill-rule="nonzero" group-id="1,5,11,77,86" node-id="613" stroke="none" target-height="18.9" target-width="23.2" target-x="37.1" target-y="20.4"></path></g><path d="M 26.60 24.60 L 28.40 23.60 L 27.10 22.90 L 27.50 23.30 L 27.30 23.70 L 24.40 25.40 L 23.10 27.50 L 23.40 28.80 L 24.80 29.00 L 24.30 28.60 L 24.30 27.00 L 25.50 25.20 L 26.60 24.60 Z" fill="#c7b289" fill-opacity="0.47" fill-rule="nonzero" group-id="1,5,11,77,87" node-id="618" stroke="none" target-height="6.1000004" target-width="5.299999" target-x="23.1" target-y="22.9"></path></g></g><g node-id="1283"><path d="M 4.80 44.30 L 161.40 44.30 L 161.40 57.20 L 4.80 57.20 Z" fill="#ffffff" fill-rule="nonzero" group-id="1,5,12" node-id="625" stroke="none" target-height="12.900002" target-width="156.59999" target-x="4.8" target-y="44.3"></path><path d="M 162.90 58.70 L 3.30 58.70 L 3.30 42.80 L 162.90 42.80 L 162.90 58.70 Z M 6.30 55.70 L 159.90 55.70 L 159.90 45.80 L 6.30 45.80 L 6.30 55.70 Z" fill="#ccccde" fill-rule="nonzero" group-id="1,5,12" node-id="627" stroke="none" target-height="15.900002" target-width="159.59999" target-x="3.3" target-y="42.8"></path></g><g node-id="1284"><path d="M 80.60 2.20 L 92.40 2.20 L 92.40 44.30 L 80.60 44.30 Z" fill="#f0f0ff" fill-rule="nonzero" group-id="1,5,13" node-id="632" stroke="none" target-height="42.1" target-width="11.800003" target-x="80.6" target-y="2.2"></path><path d="M 92.40 45.80 L 80.60 45.80 L 80.00 45.60 L 79.20 44.80 L 79.10 2.20 L 79.20 1.60 L 80.00 0.90 L 92.40 0.70 L 93.00 0.90 L 93.80 1.60 L 93.90 44.30 L 93.50 45.30 L 92.40 45.80 Z M 82.10 42.80 L 90.90 42.80 L 90.90 3.70 L 82.10 3.70 L 82.10 42.80 Z" fill="#ccccde" fill-rule="nonzero" group-id="1,5,13" node-id="634" stroke="none" target-height="45.1" target-width="14.800003" target-x="79.1" target-y="0.7"></path></g><g node-id="1285"><path d="M 92.00 2.20 L 103.90 2.20 L 103.90 44.30 L 92.00 44.30 Z" fill="#bff4ff" fill-rule="nonzero" group-id="1,5,14" node-id="639" stroke="none" target-height="42.1" target-width="11.900002" target-x="92" target-y="2.2"></path><path d="M 103.90 45.80 L 92.00 45.80 L 91.40 45.60 L 90.70 44.80 L 90.50 2.20 L 90.70 1.60 L 91.40 0.90 L 103.90 0.70 L 104.50 0.90 L 105.30 1.60 L 105.40 44.30 L 105.00 45.30 L 103.90 45.80 Z M 93.50 42.80 L 102.40 42.80 L 102.40 3.70 L 93.50 3.70 L 93.50 42.80 Z" fill="#ccccde" fill-rule="nonzero" group-id="1,5,14" node-id="641" stroke="none" target-height="45.1" target-width="14.900002" target-x="90.5" target-y="0.7"></path></g><g node-id="1286"><path d="M 103.90 2.20 L 115.80 2.20 L 115.80 44.30 L 103.90 44.30 Z" fill="#f4ffba" fill-rule="nonzero" group-id="1,5,15" node-id="646" stroke="none" target-height="42.1" target-width="11.900002" target-x="103.9" target-y="2.2"></path><path d="M 115.80 45.80 L 103.90 45.80 L 103.30 45.60 L 102.50 44.80 L 102.40 2.20 L 102.50 1.60 L 103.30 0.90 L 115.80 0.70 L 116.40 0.90 L 117.20 1.60 L 117.30 44.30 L 116.80 45.30 L 115.80 45.80 Z M 105.40 42.80 L 114.30 42.80 L 114.30 3.70 L 105.40 3.70 L 105.40 42.80 Z" fill="#ccccde" fill-rule="nonzero" group-id="1,5,15" node-id="648" stroke="none" target-height="45.1" target-width="14.900002" target-x="102.4" target-y="0.7"></path></g><g node-id="1287"><g node-id="1349"><path d="M 147.70 38.50 L 138.40 44.30 L 116.50 8.40 L 125.80 2.70 Z" fill="#ffdbdb" fill-rule="nonzero" group-id="1,5,16,78" node-id="655" stroke="none" target-height="41.6" target-width="31.199997" target-x="116.5" target-y="2.7"></path></g><path d="M 138.40 45.80 L 137.10 45.00 L 115.00 8.60 L 115.20 7.50 L 115.70 7.10 L 125.60 1.20 L 126.70 1.50 L 127.10 1.90 L 149.20 38.30 L 149.20 38.90 L 148.50 39.80 L 139.10 45.50 L 138.40 45.80 Z M 118.50 8.90 L 138.90 42.20 L 145.70 38.00 L 125.30 4.70 L 118.50 8.90 Z" fill="#ccccde" fill-rule="nonzero" group-id="1,5,16" node-id="658" stroke="none" target-height="44.6" target-width="34.199997" target-x="115" target-y="1.2"></path></g></g><g node-id="1277"><path d="M 245.00 86.60 L 244.80 90.80 L 244.10 94.80 L 243.20 98.70 L 241.80 102.40 L 238.00 109.30 L 233.10 115.30 L 227.10 120.30 L 220.20 124.00 L 216.40 125.40 L 212.60 126.40 L 208.60 127.00 L 204.30 127.20 L 200.10 127.00 L 196.10 126.40 L 192.20 125.40 L 184.90 122.30 L 178.50 118.00 L 173.00 112.40 L 168.60 106.00 L 165.50 98.70 L 164.50 94.80 L 163.90 90.80 L 163.70 86.60 L 163.90 82.40 L 164.50 78.30 L 165.50 74.50 L 168.60 67.20 L 173.00 60.80 L 178.50 55.20 L 181.60 52.90 L 188.50 49.10 L 192.20 47.80 L 196.10 46.80 L 200.10 46.20 L 204.30 46.00 L 208.60 46.20 L 212.60 46.80 L 216.40 47.80 L 220.20 49.10 L 227.10 52.90 L 233.10 57.90 L 238.00 63.90 L 241.80 70.80 L 243.20 74.50 L 244.10 78.30 L 244.80 82.40 L 245.00 86.60 Z" fill="#e0ecff" fill-rule="nonzero" group-id="1,6" node-id="663" stroke="none" target-height="81.2" target-width="81.3" target-x="163.7" target-y="46"></path><path d="M 238.30 86.60 L 238.00 91.20 L 237.10 95.60 L 235.70 99.80 L 233.70 103.70 L 231.30 107.30 L 228.40 110.60 L 225.10 113.40 L 221.50 115.80 L 217.60 117.80 L 213.40 119.30 L 209.00 120.20 L 204.40 120.50 L 199.70 120.20 L 195.30 119.30 L 191.20 117.80 L 187.20 115.80 L 183.60 113.40 L 180.40 110.60 L 177.50 107.30 L 175.10 103.70 L 173.10 99.80 L 171.70 95.60 L 170.80 91.20 L 170.40 86.60 L 170.80 81.90 L 171.70 77.50 L 173.10 73.30 L 175.10 69.40 L 177.50 65.80 L 180.40 62.50 L 183.60 59.70 L 187.20 57.30 L 191.20 55.30 L 195.30 53.80 L 199.70 52.90 L 204.40 52.60 L 209.00 52.90 L 213.40 53.80 L 217.60 55.30 L 221.50 57.30 L 225.10 59.70 L 228.40 62.50 L 231.30 65.80 L 233.70 69.40 L 235.70 73.30 L 237.10 77.50 L 238.00 81.90 L 238.30 86.60 Z" fill="#f2faff" fill-rule="nonzero" group-id="1,6" node-id="665" stroke="none" target-height="67.9" target-width="67.90001" target-x="170.4" target-y="52.6"></path><path d="M 191.90 66.30 L 191.10 66.10 L 190.60 65.50 L 188.10 61.30 L 188.00 60.70 L 188.30 59.70 L 189.30 59.10 L 190.40 59.40 L 190.80 59.80 L 193.20 64.00 L 193.40 64.60 L 193.10 65.70 L 191.90 66.30 Z" fill="#ccccde" fill-rule="nonzero" group-id="1,6" node-id="667" stroke="none" target-height="7.2000046" target-width="5.399994" target-x="188" target-y="59.1"></path><path d="M 182.70 75.50 L 177.30 72.40 L 177.00 71.40 L 177.20 70.80 L 178.10 70.10 L 179.20 70.20 L 183.90 73.10 L 184.20 74.10 L 184.00 74.70 L 183.40 75.30 L 182.70 75.50 Z" fill="#ccccde" fill-rule="nonzero" group-id="1,6" node-id="669" stroke="none" target-height="5.4000015" target-width="7.199997" target-x="177" target-y="70.1"></path><path d="M 178.50 103.00 L 177.80 102.80 L 177.20 102.20 L 177.00 101.70 L 177.30 100.60 L 182.50 97.60 L 183.60 97.90 L 184.00 98.30 L 184.20 98.90 L 183.90 100.00 L 178.50 103.00 Z" fill="#ccccde" fill-rule="nonzero" group-id="1,6" node-id="671" stroke="none" target-height="5.4000015" target-width="7.199997" target-x="177" target-y="97.6"></path><path d="M 189.40 113.90 L 188.30 113.40 L 188.00 112.30 L 190.60 107.50 L 191.50 106.80 L 192.60 106.90 L 193.10 107.30 L 193.40 108.40 L 190.80 113.20 L 190.20 113.80 L 189.40 113.90 Z" fill="#ccccde" fill-rule="nonzero" group-id="1,6" node-id="673" stroke="none" target-height="7.0999985" target-width="5.399994" target-x="188" target-y="106.8"></path><path d="M 219.40 113.90 L 218.70 113.80 L 218.10 113.20 L 215.70 109.00 L 215.50 108.40 L 215.80 107.30 L 216.80 106.70 L 217.90 107.00 L 218.30 107.50 L 220.70 111.70 L 220.90 112.30 L 220.60 113.30 L 219.40 113.90 Z" fill="#ccccde" fill-rule="nonzero" group-id="1,6" node-id="675" stroke="none" target-height="7.2000046" target-width="5.399994" target-x="215.5" target-y="106.7"></path><path d="M 230.40 103.00 L 225.00 100.00 L 224.70 98.90 L 224.90 98.30 L 225.80 97.60 L 226.90 97.80 L 231.60 100.60 L 231.90 101.70 L 231.70 102.20 L 231.10 102.80 L 230.40 103.00 Z" fill="#ccccde" fill-rule="nonzero" group-id="1,6" node-id="677" stroke="none" target-height="5.4000015" target-width="7.199997" target-x="224.7" target-y="97.6"></path><path d="M 226.20 75.50 L 225.40 75.30 L 224.90 74.70 L 224.70 74.10 L 225.00 73.10 L 230.20 70.00 L 231.30 70.30 L 231.70 70.80 L 231.90 71.40 L 231.60 72.40 L 226.20 75.50 Z" fill="#ccccde" fill-rule="nonzero" group-id="1,6" node-id="679" stroke="none" target-height="5.5" target-width="7.199997" target-x="224.7" target-y="70"></path><path d="M 217.00 66.30 L 215.80 65.70 L 215.50 64.60 L 218.10 59.80 L 219.00 59.10 L 220.20 59.30 L 220.60 59.70 L 220.90 60.70 L 218.30 65.50 L 217.70 66.10 L 217.00 66.30 Z" fill="#ccccde" fill-rule="nonzero" group-id="1,6" node-id="681" stroke="none" target-height="7.2000046" target-width="5.399994" target-x="215.5" target-y="59.1"></path><g node-id="1288"><path d="M 204.40 59.50 L 203.40 59.10 L 202.90 58.00 L 203.00 56.00 L 203.80 55.20 L 205.00 55.20 L 205.80 56.00 L 205.90 56.60 L 205.80 58.60 L 205.00 59.40 L 204.40 59.50 Z" fill="#ccccde" fill-opacity="0.39" fill-rule="nonzero" group-id="1,6,17" node-id="685" stroke="none" target-height="4.299999" target-width="3" target-x="202.9" target-y="55.2"></path><path d="M 199.50 59.90 L 198.20 59.20 L 197.70 57.30 L 198.00 56.20 L 199.00 55.50 L 199.60 55.50 L 200.50 56.20 L 201.00 58.20 L 200.70 59.30 L 199.50 59.90 Z" fill="#ccccde" fill-opacity="0.39" fill-rule="nonzero" group-id="1,6,17" node-id="687" stroke="none" target-height="4.4000015" target-width="3.300003" target-x="197.7" target-y="55.5"></path><path d="M 194.70 61.20 L 193.80 61.00 L 192.80 58.90 L 192.80 57.70 L 193.70 57.00 L 194.30 56.90 L 195.30 57.30 L 196.10 59.20 L 196.00 60.40 L 195.70 60.80 L 194.70 61.20 Z" fill="#ccccde" fill-opacity="0.39" fill-rule="nonzero" group-id="1,6,17" node-id="689" stroke="none" target-height="4.299999" target-width="3.300003" target-x="192.8" target-y="56.9"></path><path d="M 190.20 63.30 L 189.40 63.10 L 188.90 62.60 L 188.00 60.70 L 188.30 59.70 L 189.30 59.10 L 190.40 59.40 L 191.70 61.70 L 191.40 62.70 L 190.20 63.30 Z" fill="#ccccde" fill-opacity="0.39" fill-rule="nonzero" group-id="1,6,17" node-id="691" stroke="none" target-height="4.200001" target-width="3.699997" target-x="188" target-y="59.1"></path><path d="M 186.10 66.20 L 185.00 65.60 L 183.70 64.00 L 183.80 62.90 L 184.70 62.10 L 185.90 62.20 L 187.50 64.20 L 187.40 65.40 L 187.10 65.80 L 186.10 66.20 Z" fill="#ccccde" fill-opacity="0.39" fill-rule="nonzero" group-id="1,6,17" node-id="693" stroke="none" target-height="4.0999985" target-width="3.800003" target-x="183.7" target-y="62.1"></path><path d="M 182.60 69.70 L 181.60 69.30 L 180.10 67.90 L 180.00 66.80 L 180.30 66.30 L 181.40 65.80 L 182.40 66.10 L 183.90 67.50 L 184.00 68.60 L 183.70 69.20 L 182.60 69.70 Z" fill="#ccccde" fill-opacity="0.39" fill-rule="nonzero" group-id="1,6,17" node-id="695" stroke="none" target-height="3.899994" target-width="4" target-x="180" target-y="65.8"></path><path d="M 179.70 73.80 L 177.70 72.80 L 177.00 71.90 L 177.20 70.80 L 178.10 70.10 L 179.20 70.20 L 180.50 71.00 L 181.20 71.90 L 181.00 73.00 L 180.50 73.60 L 179.70 73.80 Z" fill="#ccccde" fill-opacity="0.39" fill-rule="nonzero" group-id="1,6,17" node-id="697" stroke="none" target-height="3.7000046" target-width="4.199997" target-x="177" target-y="70.1"></path><path d="M 177.70 78.30 L 175.80 77.70 L 174.90 76.90 L 174.90 75.70 L 175.70 74.90 L 176.80 74.90 L 178.20 75.40 L 179.00 76.10 L 179.10 77.30 L 178.50 78.00 L 177.70 78.30 Z" fill="#ccccde" fill-opacity="0.39" fill-rule="nonzero" group-id="1,6,17" node-id="699" stroke="none" target-height="3.4000015" target-width="4.200012" target-x="174.9" target-y="74.9"></path><path d="M 176.40 83.10 L 174.70 82.80 L 173.70 82.20 L 173.50 81.00 L 173.70 80.50 L 174.60 79.80 L 176.60 80.10 L 177.60 80.70 L 177.80 81.20 L 177.70 82.30 L 176.40 83.10 Z" fill="#ccccde" fill-opacity="0.39" fill-rule="nonzero" group-id="1,6,17" node-id="701" stroke="none" target-height="3.2999954" target-width="4.300003" target-x="173.5" target-y="79.8"></path><path d="M 175.90 88.00 L 174.50 88.00 L 173.40 87.60 L 173.00 86.50 L 173.10 85.90 L 173.90 85.10 L 175.90 85.00 L 177.00 85.50 L 177.40 86.50 L 177.30 87.10 L 176.50 87.90 L 175.90 88.00 Z" fill="#ccccde" fill-opacity="0.39" fill-rule="nonzero" group-id="1,6,17" node-id="703" stroke="none" target-height="3" target-width="4.399994" target-x="173" target-y="85"></path><path d="M 174.90 93.20 L 173.60 92.50 L 173.50 91.40 L 174.10 90.50 L 176.10 90.00 L 176.70 90.00 L 177.60 90.60 L 177.80 91.80 L 177.20 92.70 L 174.90 93.20 Z" fill="#ccccde" fill-opacity="0.39" fill-rule="nonzero" group-id="1,6,17" node-id="705" stroke="none" target-height="3.199997" target-width="4.300003" target-x="173.5" target-y="90"></path><path d="M 176.30 98.30 L 175.40 98.00 L 174.90 97.30 L 174.90 96.10 L 175.80 95.30 L 177.10 94.80 L 177.70 94.80 L 178.70 95.20 L 179.10 95.70 L 179.00 96.90 L 178.20 97.70 L 176.30 98.30 Z" fill="#ccccde" fill-opacity="0.39" fill-rule="nonzero" group-id="1,6,17" node-id="707" stroke="none" target-height="3.5" target-width="4.200012" target-x="174.9" target-y="94.8"></path><path d="M 178.50 103.00 L 177.80 102.80 L 177.20 102.20 L 177.00 101.10 L 177.70 100.20 L 179.60 99.30 L 180.70 99.60 L 181.00 100.00 L 181.20 101.10 L 180.50 102.10 L 178.50 103.00 Z" fill="#ccccde" fill-opacity="0.39" fill-rule="nonzero" group-id="1,6,17" node-id="709" stroke="none" target-height="3.699997" target-width="4.199997" target-x="177" target-y="99.3"></path><path d="M 181.50 107.30 L 180.30 106.70 L 180.00 105.60 L 180.50 104.60 L 182.20 103.40 L 183.30 103.50 L 183.70 103.90 L 184.10 105.00 L 183.60 106.00 L 182.40 106.90 L 181.50 107.30 Z" fill="#ccccde" fill-opacity="0.39" fill-rule="nonzero" group-id="1,6,17" node-id="711" stroke="none" target-height="3.9000015" target-width="4.100006" target-x="180" target-y="103.4"></path><path d="M 185.20 111.00 L 184.20 110.60 L 183.80 110.10 L 183.70 109.00 L 185.00 107.40 L 186.00 106.80 L 187.10 107.20 L 187.40 107.70 L 187.50 108.80 L 186.30 110.40 L 185.20 111.00 Z" fill="#ccccde" fill-opacity="0.39" fill-rule="nonzero" group-id="1,6,17" node-id="713" stroke="none" target-height="4.199997" target-width="3.800003" target-x="183.7" target-y="106.8"></path><path d="M 189.40 113.90 L 188.30 113.30 L 188.00 112.30 L 188.90 110.40 L 189.80 109.70 L 190.90 109.90 L 191.40 110.30 L 191.70 111.40 L 190.70 113.20 L 190.20 113.80 L 189.40 113.90 Z" fill="#ccccde" fill-opacity="0.39" fill-rule="nonzero" group-id="1,6,17" node-id="715" stroke="none" target-height="4.2000046" target-width="3.699997" target-x="188" target-y="109.7"></path><path d="M 194.20 116.20 L 193.20 115.80 L 192.70 114.70 L 193.30 112.80 L 194.00 111.90 L 195.20 111.90 L 195.70 112.20 L 196.20 113.20 L 195.60 115.20 L 195.00 115.90 L 194.20 116.20 Z" fill="#ccccde" fill-opacity="0.39" fill-rule="nonzero" group-id="1,6,17" node-id="717" stroke="none" target-height="4.2999954" target-width="3.5" target-x="192.7" target-y="111.9"></path><path d="M 199.20 117.50 L 198.00 116.90 L 197.70 115.70 L 198.20 113.80 L 199.10 113.10 L 200.30 113.30 L 200.90 114.20 L 201.00 114.80 L 200.50 116.80 L 199.20 117.50 Z" fill="#ccccde" fill-opacity="0.39" fill-rule="nonzero" group-id="1,6,17" node-id="719" stroke="none" target-height="4.4000015" target-width="3.300003" target-x="197.7" target-y="113.1"></path><path d="M 204.40 118.00 L 203.40 117.50 L 202.90 116.50 L 203.00 114.40 L 203.80 113.60 L 205.00 113.60 L 205.80 114.40 L 205.90 115.00 L 205.80 117.10 L 205.00 117.80 L 204.40 118.00 Z" fill="#ccccde" fill-opacity="0.39" fill-rule="nonzero" group-id="1,6,17" node-id="721" stroke="none" target-height="4.4000015" target-width="3" target-x="202.9" target-y="113.6"></path><path d="M 209.60 117.50 L 208.30 116.80 L 207.90 114.80 L 208.10 113.70 L 209.10 113.10 L 209.70 113.10 L 210.60 113.80 L 211.10 115.70 L 210.90 116.90 L 209.60 117.50 Z" fill="#ccccde" fill-opacity="0.39" fill-rule="nonzero" group-id="1,6,17" node-id="723" stroke="none" target-height="4.4000015" target-width="3.2000122" target-x="207.9" target-y="113.1"></path><path d="M 214.70 116.20 L 213.80 115.90 L 212.80 113.80 L 212.80 112.60 L 213.70 111.90 L 214.30 111.80 L 215.30 112.30 L 216.10 114.10 L 216.00 115.30 L 215.70 115.80 L 214.70 116.20 Z" fill="#ccccde" fill-opacity="0.39" fill-rule="nonzero" group-id="1,6,17" node-id="725" stroke="none" target-height="4.399994" target-width="3.300003" target-x="212.8" target-y="111.8"></path><path d="M 219.40 113.90 L 218.70 113.80 L 218.10 113.20 L 217.20 111.40 L 217.50 110.30 L 218.50 109.70 L 219.60 110.00 L 220.90 112.30 L 220.60 113.40 L 219.40 113.90 Z" fill="#ccccde" fill-opacity="0.39" fill-rule="nonzero" group-id="1,6,17" node-id="727" stroke="none" target-height="4.2000046" target-width="3.699997" target-x="217.2" target-y="109.7"></path><path d="M 223.70 111.00 L 222.50 110.40 L 221.30 108.80 L 221.40 107.70 L 222.30 106.90 L 223.40 107.00 L 225.10 109.00 L 225.00 110.10 L 224.60 110.60 L 223.70 111.00 Z" fill="#ccccde" fill-opacity="0.39" fill-rule="nonzero" group-id="1,6,17" node-id="729" stroke="none" target-height="4.0999985" target-width="3.800003" target-x="221.3" target-y="106.9"></path><path d="M 227.40 107.30 L 226.40 106.90 L 224.90 105.50 L 224.80 104.40 L 225.10 103.90 L 226.10 103.30 L 227.20 103.70 L 228.70 105.10 L 228.80 106.20 L 228.50 106.70 L 227.40 107.30 Z" fill="#ccccde" fill-opacity="0.39" fill-rule="nonzero" group-id="1,6,17" node-id="731" stroke="none" target-height="4" target-width="4" target-x="224.8" target-y="103.3"></path><path d="M 230.40 103.00 L 228.40 102.10 L 227.70 101.10 L 227.80 100.00 L 228.70 99.30 L 229.90 99.50 L 231.10 100.20 L 231.80 101.10 L 231.70 102.20 L 231.10 102.80 L 230.40 103.00 Z" fill="#ccccde" fill-opacity="0.39" fill-rule="nonzero" group-id="1,6,17" node-id="733" stroke="none" target-height="3.699997" target-width="4.100006" target-x="227.7" target-y="99.3"></path><path d="M 232.60 98.30 L 230.70 97.70 L 229.80 96.90 L 229.80 95.70 L 230.60 94.90 L 231.70 94.80 L 233.10 95.30 L 233.90 96.10 L 234.00 97.30 L 233.40 98.00 L 232.60 98.30 Z" fill="#ccccde" fill-opacity="0.39" fill-rule="nonzero" group-id="1,6,17" node-id="735" stroke="none" target-height="3.5" target-width="4.199997" target-x="229.8" target-y="94.8"></path><path d="M 233.90 93.20 L 232.20 92.90 L 231.30 92.30 L 231.00 91.20 L 231.20 90.60 L 232.10 90.00 L 234.20 90.20 L 235.20 90.90 L 235.40 91.40 L 235.20 92.50 L 233.90 93.20 Z" fill="#ccccde" fill-opacity="0.39" fill-rule="nonzero" group-id="1,6,17" node-id="737" stroke="none" target-height="3.199997" target-width="4.399994" target-x="231" target-y="90"></path><path d="M 234.40 88.00 L 232.90 88.00 L 231.90 87.60 L 231.40 86.50 L 231.50 85.90 L 232.30 85.10 L 234.40 85.00 L 235.40 85.40 L 235.90 86.50 L 235.80 87.10 L 235.00 87.90 L 234.40 88.00 Z" fill="#ccccde" fill-opacity="0.39" fill-rule="nonzero" group-id="1,6,17" node-id="739" stroke="none" target-height="3" target-width="4.5" target-x="231.4" target-y="85"></path><path d="M 232.50 83.10 L 231.20 82.30 L 231.00 81.20 L 231.70 80.30 L 233.70 79.80 L 234.30 79.80 L 235.20 80.50 L 235.40 81.60 L 234.70 82.60 L 232.50 83.10 Z" fill="#ccccde" fill-opacity="0.39" fill-rule="nonzero" group-id="1,6,17" node-id="741" stroke="none" target-height="3.2999954" target-width="4.399994" target-x="231" target-y="79.8"></path><path d="M 231.20 78.30 L 230.40 78.00 L 229.80 77.30 L 229.80 76.10 L 230.70 75.40 L 232.10 74.90 L 232.60 74.80 L 233.70 75.20 L 234.00 75.70 L 233.90 76.90 L 233.10 77.70 L 231.20 78.30 Z" fill="#ccccde" fill-opacity="0.39" fill-rule="nonzero" group-id="1,6,17" node-id="743" stroke="none" target-height="3.5" target-width="4.199997" target-x="229.8" target-y="74.8"></path><path d="M 229.10 73.80 L 228.40 73.60 L 227.80 73.00 L 227.70 71.90 L 228.40 71.00 L 230.20 70.00 L 231.30 70.30 L 231.70 70.80 L 231.80 71.90 L 231.10 72.80 L 229.10 73.80 Z" fill="#ccccde" fill-opacity="0.39" fill-rule="nonzero" group-id="1,6,17" node-id="745" stroke="none" target-height="3.800003" target-width="4.100006" target-x="227.7" target-y="70"></path><path d="M 226.30 69.70 L 225.10 69.20 L 224.80 68.10 L 225.30 67.00 L 226.90 65.80 L 228.10 65.90 L 228.50 66.30 L 228.90 67.40 L 228.30 68.40 L 227.20 69.30 L 226.30 69.70 Z" fill="#ccccde" fill-opacity="0.39" fill-rule="nonzero" group-id="1,6,17" node-id="747" stroke="none" target-height="3.899994" target-width="4.099991" target-x="224.8" target-y="65.8"></path><path d="M 222.70 66.20 L 221.80 65.80 L 221.40 65.40 L 221.30 64.20 L 222.50 62.60 L 223.50 62.10 L 224.60 62.40 L 225.00 62.90 L 225.10 64.00 L 223.90 65.60 L 222.70 66.20 Z" fill="#ccccde" fill-opacity="0.39" fill-rule="nonzero" group-id="1,6,17" node-id="749" stroke="none" target-height="4.0999985" target-width="3.800003" target-x="221.3" target-y="62.1"></path><path d="M 218.70 63.30 L 217.50 62.70 L 217.20 61.70 L 218.10 59.80 L 219.00 59.10 L 220.20 59.30 L 220.60 59.70 L 220.90 60.70 L 220.00 62.60 L 219.40 63.10 L 218.70 63.30 Z" fill="#ccccde" fill-opacity="0.39" fill-rule="nonzero" group-id="1,6,17" node-id="751" stroke="none" target-height="4.200001" target-width="3.699997" target-x="217.2" target-y="59.1"></path><path d="M 214.20 61.20 L 213.10 60.80 L 212.70 59.80 L 213.30 57.90 L 214.00 57.00 L 215.20 57.00 L 215.70 57.30 L 216.20 58.30 L 215.60 60.20 L 215.00 61.00 L 214.20 61.20 Z" fill="#ccccde" fill-opacity="0.39" fill-rule="nonzero" group-id="1,6,17" node-id="753" stroke="none" target-height="4.200001" target-width="3.5" target-x="212.7" target-y="57"></path><path d="M 209.40 60.00 L 208.10 59.30 L 207.90 58.20 L 208.40 56.20 L 209.30 55.60 L 210.40 55.80 L 211.10 56.70 L 211.10 57.30 L 210.70 59.20 L 209.40 60.00 Z" fill="#ccccde" fill-opacity="0.39" fill-rule="nonzero" group-id="1,6,17" node-id="755" stroke="none" target-height="4.4000015" target-width="3.2000122" target-x="207.9" target-y="55.6"></path></g><path d="M 204.40 62.90 L 203.40 62.50 L 202.90 61.40 L 202.90 56.60 L 203.00 56.00 L 203.80 55.20 L 205.00 55.20 L 205.80 56.00 L 205.90 56.60 L 205.80 62.00 L 205.00 62.80 L 204.40 62.90 Z" fill="#ccccde" fill-rule="nonzero" group-id="1,6" node-id="758" stroke="none" target-height="7.700001" target-width="3" target-x="202.9" target-y="55.2"></path><path d="M 174.50 88.00 L 173.90 87.90 L 173.10 87.10 L 173.10 85.90 L 173.90 85.10 L 179.30 85.00 L 179.90 85.10 L 180.70 85.90 L 180.70 87.10 L 179.90 87.90 L 174.50 88.00 Z" fill="#ccccde" fill-rule="nonzero" group-id="1,6" node-id="760" stroke="none" target-height="3" target-width="7.599991" target-x="173.1" target-y="85"></path><path d="M 204.40 118.00 L 203.40 117.50 L 202.90 116.50 L 202.90 111.60 L 203.00 111.00 L 203.80 110.20 L 205.00 110.20 L 205.80 111.00 L 205.90 111.60 L 205.80 117.10 L 205.00 117.80 L 204.40 118.00 Z" fill="#ccccde" fill-rule="nonzero" group-id="1,6" node-id="762" stroke="none" target-height="7.800003" target-width="3" target-x="202.9" target-y="110.2"></path><path d="M 234.40 88.00 L 228.90 87.90 L 228.10 87.10 L 228.00 86.50 L 228.10 85.90 L 228.90 85.10 L 235.00 85.10 L 235.80 85.90 L 235.80 87.10 L 235.00 87.90 L 234.40 88.00 Z" fill="#ccccde" fill-rule="nonzero" group-id="1,6" node-id="764" stroke="none" target-height="2.9000015" target-width="7.800003" target-x="228" target-y="85.1"></path><path d="M 219.30 102.90 L 218.20 102.50 L 203.30 87.60 L 202.90 86.50 L 203.30 85.50 L 215.50 73.60 L 216.60 73.60 L 217.50 74.40 L 217.50 75.50 L 217.10 76.00 L 206.50 86.60 L 220.30 100.40 L 220.70 100.90 L 220.70 102.00 L 220.30 102.50 L 219.30 102.90 Z" fill="#ccccde" fill-rule="nonzero" group-id="1,6" node-id="766" stroke="none" target-height="29.300003" target-width="17.800003" target-x="202.9" target-y="73.6"></path><path d="M 185.90 97.80 L 185.50 97.50 L 185.60 96.90 L 204.10 86.10 L 204.80 86.30 L 204.60 87.00 L 185.90 97.80 Z" fill="#ccccde" fill-rule="nonzero" group-id="1,6" node-id="768" stroke="none" target-height="11.700005" target-width="19.300003" target-x="185.5" target-y="86.1"></path><g node-id="1289"><path d="M 206.60 86.60 L 206.50 87.50 L 205.30 88.70 L 203.50 88.70 L 202.30 87.50 L 202.30 85.70 L 203.50 84.50 L 205.30 84.50 L 206.50 85.70 L 206.60 86.60 Z" fill="#f0f0ff" fill-rule="nonzero" group-id="1,6,18" node-id="772" stroke="none" target-height="4.199997" target-width="4.300003" target-x="202.3" target-y="84.5"></path><path d="M 204.40 90.40 L 202.90 90.10 L 201.70 89.30 L 200.90 88.10 L 200.60 86.60 L 200.90 85.10 L 201.70 83.90 L 202.90 83.10 L 204.40 82.80 L 205.80 83.10 L 207.00 83.90 L 207.80 85.10 L 208.10 86.60 L 207.80 88.10 L 207.00 89.30 L 205.80 90.10 L 204.40 90.40 Z M 204.40 85.80 L 203.80 86.10 L 203.60 86.60 L 203.80 87.10 L 204.40 87.40 L 204.90 87.10 L 205.10 86.60 L 204.90 86.10 L 204.40 85.80 Z" fill="#ccccde" fill-rule="nonzero" group-id="1,6,18" node-id="774" stroke="none" target-height="7.5999985" target-width="7.5" target-x="200.6" target-y="82.8"></path></g><g node-id="1290"><path d="M 165.70 92.80 L 165.50 84.80 L 166.90 77.20 L 169.70 70.10 L 173.80 63.80 L 178.90 58.30 L 185.20 53.90 L 192.20 50.80 L 200.00 49.00 L 208.00 48.80 L 215.60 50.20 L 222.60 53.00 L 229.00 57.10 L 231.80 59.60 L 236.80 65.20 L 240.60 71.90 L 243.10 79.30 L 243.80 83.30 L 244.10 87.60 L 243.90 91.70 L 244.30 84.60 L 244.00 80.90 L 242.20 73.00 L 239.00 65.80 L 234.50 59.50 L 229.00 54.20 L 222.50 50.10 L 215.30 47.20 L 207.60 45.80 L 199.40 46.00 L 191.40 47.80 L 184.30 51.00 L 178.00 55.50 L 172.70 61.10 L 170.40 64.20 L 167.00 71.00 L 164.80 78.50 L 164.30 82.40 L 164.50 90.60 L 165.30 95.10 L 166.50 99.40 L 168.30 103.50 L 170.40 107.30 L 167.40 100.40 L 165.70 92.80 Z" fill="#ffffff" fill-opacity="0.58" fill-rule="nonzero" group-id="1,6,19" node-id="779" stroke="none" target-height="61.500004" target-width="80" target-x="164.3" target-y="45.8"></path></g><path d="M 204.30 128.70 L 200.00 128.50 L 195.80 127.90 L 191.80 126.80 L 188.00 125.40 L 180.80 121.50 L 174.60 116.40 L 169.40 110.20 L 165.50 103.00 L 164.10 99.10 L 163.10 95.10 L 162.40 91.00 L 162.20 86.60 L 162.40 82.20 L 163.10 78.10 L 164.10 74.10 L 165.50 70.20 L 167.30 66.50 L 171.80 59.80 L 177.60 54.10 L 184.20 49.60 L 188.00 47.80 L 191.80 46.40 L 195.80 45.30 L 200.00 44.70 L 204.30 44.50 L 208.70 44.70 L 212.90 45.30 L 216.90 46.40 L 220.70 47.80 L 224.40 49.60 L 231.10 54.10 L 236.90 59.80 L 239.30 63.00 L 243.20 70.20 L 244.60 74.10 L 245.60 78.10 L 246.20 82.20 L 246.50 86.60 L 246.20 91.00 L 245.60 95.10 L 244.60 99.10 L 243.20 103.00 L 239.30 110.20 L 234.10 116.40 L 227.90 121.50 L 220.70 125.40 L 216.90 126.80 L 212.90 127.90 L 208.70 128.50 L 204.30 128.70 Z M 204.30 47.50 L 196.40 48.30 L 189.10 50.50 L 182.50 54.20 L 176.70 58.90 L 171.90 64.70 L 168.30 71.40 L 166.00 78.70 L 165.20 86.60 L 166.00 94.50 L 168.30 101.80 L 171.90 108.50 L 176.70 114.30 L 182.50 119.00 L 189.10 122.70 L 196.40 124.90 L 204.30 125.70 L 212.30 124.90 L 219.60 122.70 L 226.20 119.00 L 232.00 114.30 L 236.80 108.50 L 240.40 101.80 L 242.70 94.50 L 243.50 86.60 L 242.70 78.70 L 240.40 71.40 L 236.80 64.70 L 232.00 58.90 L 226.20 54.20 L 219.60 50.50 L 212.30 48.30 L 204.30 47.50 Z" fill="#ccccde" fill-rule="nonzero" group-id="1,6" node-id="782" stroke="none" target-height="84.2" target-width="84.3" target-x="162.2" target-y="44.5"></path><path d="M 204.40 122.00 L 199.50 121.70 L 194.90 120.70 L 190.60 119.20 L 186.50 117.10 L 182.70 114.60 L 179.30 111.60 L 176.30 108.20 L 173.80 104.40 L 171.70 100.30 L 170.20 96.00 L 169.30 91.40 L 168.90 86.60 L 169.30 81.70 L 170.20 77.10 L 171.70 72.80 L 173.80 68.70 L 176.30 64.90 L 179.30 61.50 L 182.70 58.50 L 186.50 56.00 L 190.60 53.90 L 194.90 52.40 L 199.50 51.40 L 204.40 51.10 L 209.20 51.40 L 213.80 52.40 L 218.20 53.90 L 222.30 56.00 L 226.00 58.50 L 229.40 61.50 L 232.40 64.90 L 235.00 68.70 L 237.00 72.80 L 238.60 77.10 L 239.50 81.70 L 239.80 86.60 L 239.50 91.40 L 238.60 96.00 L 237.00 100.30 L 235.00 104.40 L 232.40 108.20 L 229.40 111.60 L 226.00 114.60 L 222.30 117.10 L 218.20 119.20 L 213.80 120.70 L 209.20 121.70 L 204.40 122.00 Z M 204.40 54.10 L 199.90 54.40 L 195.70 55.30 L 191.80 56.70 L 188.00 58.60 L 184.60 60.90 L 181.40 63.60 L 178.70 66.70 L 176.40 70.20 L 174.50 73.90 L 173.10 77.90 L 172.20 82.10 L 171.90 86.60 L 172.20 91.00 L 173.10 95.20 L 174.50 99.20 L 176.40 102.90 L 178.70 106.40 L 181.50 109.50 L 184.60 112.20 L 188.00 114.50 L 191.80 116.40 L 195.70 117.80 L 199.90 118.70 L 204.40 119.00 L 208.80 118.70 L 213.00 117.80 L 217.00 116.40 L 220.80 114.50 L 224.20 112.20 L 227.30 109.50 L 230.10 106.40 L 232.40 102.90 L 234.30 99.20 L 235.70 95.20 L 236.50 91.00 L 236.80 86.60 L 236.50 82.10 L 235.70 77.90 L 234.30 73.90 L 232.40 70.20 L 230.10 66.70 L 227.30 63.60 L 224.20 60.90 L 220.80 58.60 L 217.00 56.70 L 213.00 55.30 L 208.80 54.40 L 204.40 54.10 Z" fill="#ccccde" fill-rule="nonzero" group-id="1,6" node-id="784" stroke="none" target-height="70.9" target-width="70.90001" target-x="168.9" target-y="51.1"></path><g node-id="1291"><path d="M 240.40 70.00 L 242.60 77.10 L 243.40 84.90 L 242.60 92.90 L 240.30 100.20 L 236.70 106.90 L 231.90 112.70 L 226.00 117.50 L 219.40 121.20 L 212.00 123.40 L 208.10 124.00 L 204.00 124.30 L 200.00 124.00 L 196.10 123.40 L 188.70 121.20 L 185.30 119.50 L 179.00 115.30 L 173.70 109.90 L 171.40 106.90 L 167.80 100.20 L 166.50 96.60 L 164.90 89.00 L 164.70 84.90 L 164.90 80.70 L 165.60 76.60 L 164.30 83.50 L 164.40 91.40 L 165.00 95.40 L 167.30 102.80 L 171.00 109.70 L 175.90 115.60 L 181.80 120.50 L 188.60 124.20 L 196.10 126.50 L 204.20 127.30 L 212.40 126.50 L 219.90 124.20 L 226.70 120.50 L 232.60 115.60 L 237.50 109.70 L 241.20 102.80 L 243.50 95.40 L 244.30 87.20 L 244.10 82.60 L 243.30 78.30 L 242.10 74.00 L 240.40 70.00 Z" fill="#6e6e96" fill-opacity="0.15" fill-rule="nonzero" group-id="1,6,20" node-id="788" stroke="none" target-height="57.300003" target-width="80" target-x="164.3" target-y="70"></path></g><g node-id="1292"><path d="M 226.50 65.20 L 223.50 62.50 L 220.20 60.20 L 216.60 58.40 L 212.70 57.00 L 208.70 56.20 L 204.30 55.90 L 200.10 56.20 L 196.10 57.00 L 192.30 58.30 L 188.70 60.10 L 185.40 62.30 L 182.40 65.00 L 179.80 68.00 L 177.60 71.20 L 175.70 74.80 L 174.40 78.60 L 173.60 82.70 L 173.30 86.90 L 173.60 91.30 L 174.50 95.50 L 176.00 99.50 L 177.90 103.20 L 226.50 65.20 Z" fill="#ffffff" fill-opacity="0.54" fill-rule="nonzero" group-id="1,6,21" node-id="793" stroke="none" target-height="47.299995" target-width="53.199997" target-x="173.3" target-y="55.9"></path></g><path d="M 213.30 53.40 L 217.30 55.20 L 221.00 57.50 L 224.30 60.20 L 227.20 63.40 L 229.70 66.90 L 231.70 70.70 L 233.20 74.80 L 234.10 79.10 L 234.40 83.80 L 234.10 88.20 L 233.30 92.40 L 231.90 96.40 L 230.00 100.10 L 227.70 103.50 L 225.00 106.60 L 221.80 109.40 L 218.40 111.70 L 214.70 113.60 L 210.70 115.00 L 206.50 115.80 L 202.10 116.10 L 197.80 115.80 L 193.80 115.10 L 190.00 113.80 L 186.40 112.10 L 183.00 109.90 L 180.00 107.40 L 177.30 104.50 L 174.90 101.40 L 173.00 97.90 L 171.40 94.20 L 170.40 90.30 L 169.80 86.10 L 170.20 90.80 L 171.10 95.10 L 172.50 99.30 L 174.50 103.20 L 176.90 106.80 L 179.80 110.00 L 183.10 112.90 L 186.60 115.30 L 190.60 117.30 L 194.70 118.70 L 199.10 119.60 L 203.80 119.90 L 208.40 119.60 L 212.80 118.70 L 217.00 117.30 L 220.90 115.30 L 224.50 112.90 L 227.80 110.00 L 230.60 106.70 L 233.10 103.10 L 235.00 99.20 L 236.50 95.00 L 237.40 90.70 L 237.70 86.00 L 237.50 82.10 L 236.90 78.50 L 235.90 75.00 L 234.50 71.60 L 230.80 65.50 L 225.90 60.30 L 220.10 56.20 L 213.30 53.40 Z" fill="#6e6e96" fill-opacity="0.1" fill-rule="nonzero" group-id="1,6,22" node-id="798" stroke="none" target-height="66.5" target-width="67.899994" target-x="169.8" target-y="53.4"></path></g></g><g node-id="1273"><g node-id="1278"><g node-id="1294"><path d="M 79.80 228.30 L 77.50 228.40 Z M 130.00 219.10 L 130.00 207.80 L 86.10 207.80 L 86.10 218.70 L 85.60 222.80 L 84.00 226.00 L 82.70 227.10 L 79.80 228.30 L 86.10 228.30 L 86.10 231.30 L 130.00 231.30 L 130.00 228.30 L 139.60 228.30 L 135.80 227.70 L 132.70 225.80 L 130.70 222.80 L 130.00 219.10 Z" fill="#ffffff" fill-rule="nonzero" group-id="2,7,23" node-id="807" stroke="none" target-height="23.5" target-width="62.100006" target-x="77.5" target-y="207.8"></path><path d="M 131.50 232.80 L 84.60 232.80 L 84.60 229.80 L 76.20 229.70 L 76.50 226.80 L 79.70 226.80 L 81.40 226.20 L 82.70 225.20 L 83.70 223.70 L 84.40 221.60 L 84.60 218.70 L 84.60 206.30 L 131.50 206.30 L 131.50 219.10 L 132.10 222.10 L 132.90 223.80 L 134.40 225.30 L 137.30 226.50 L 139.60 226.80 L 139.60 228.20 L 139.60 226.80 L 139.60 228.20 L 139.60 226.80 L 139.60 229.80 L 131.50 229.80 L 131.50 232.80 Z M 87.60 229.80 L 128.50 229.80 L 128.50 226.80 L 131.50 226.80 L 130.20 225.10 L 128.70 221.20 L 128.50 209.30 L 87.60 209.30 L 87.40 221.40 L 87.00 223.60 L 85.30 226.80 L 87.60 226.80 L 87.60 229.80 Z" fill="#6e6e96" fill-rule="nonzero" group-id="2,7,23" node-id="809" stroke="none" target-height="26.5" target-width="63.40001" target-x="76.2" target-y="206.3"></path></g><g node-id="1295"><path d="M 76.50 228.30 L 139.60 228.30 L 139.60 234.30 L 76.50 234.30 Z" fill="#f2f2f2" fill-rule="nonzero" group-id="2,7,24" node-id="814" stroke="none" target-height="6" target-width="63.100006" target-x="76.5" target-y="228.3"></path><path d="M 139.60 235.80 L 76.50 235.80 L 75.40 235.40 L 75.00 234.30 L 75.00 228.30 L 75.10 227.70 L 75.90 226.90 L 139.60 226.80 L 140.70 227.20 L 141.10 228.30 L 141.10 234.30 L 140.70 235.40 L 139.60 235.80 Z M 78.00 232.80 L 138.10 232.80 L 138.10 229.80 L 78.00 229.80 L 78.00 232.80 Z" fill="#6e6e96" fill-rule="nonzero" group-id="2,7,24" node-id="816" stroke="none" target-height="9" target-width="66.100006" target-x="75" target-y="226.8"></path></g><g node-id="1296"><path d="M 31.10 191.60 L 31.10 94.80 L 31.30 92.60 L 32.70 88.70 L 35.40 85.60 L 38.90 83.50 L 43.10 82.80 L 173.00 82.80 L 177.20 83.50 L 180.80 85.60 L 183.40 88.70 L 184.30 90.60 L 185.00 94.80 L 185.00 191.60" fill="#bbc0d9" fill-rule="nonzero" group-id="2,7,25" node-id="821" stroke="none" target-height="108.8" target-width="153.9" target-x="31.1" target-y="82.8"></path></g><path d="M 39.80 91.80 L 175.40 91.80 L 175.40 174.10 L 39.80 174.10 Z" fill="#a3acd9" fill-rule="nonzero" group-id="2,7" node-id="824" stroke="none" target-height="82.3" target-width="135.59999" target-x="39.8" target-y="91.8"></path><g node-id="1297"><path d="M 185.00 182.00 L 185.00 195.80 L 184.30 200.00 L 182.20 203.60 L 179.10 206.20 L 175.20 207.60 L 173.00 207.80 L 43.10 207.80 L 40.90 207.60 L 38.90 207.10 L 35.40 205.00 L 32.70 201.90 L 31.80 200.00 L 31.10 195.80 L 31.10 182.00 L 185.00 182.00 Z" fill="#ffffff" fill-rule="nonzero" group-id="2,7,26" node-id="828" stroke="none" target-height="25.800003" target-width="153.9" target-x="31.1" target-y="182"></path></g><g node-id="1298"><path d="M 39.80 91.80 L 175.40 91.80 L 175.40 97.30 L 39.80 97.30 Z" fill="#6e6e96" fill-opacity="0.51" fill-rule="nonzero" group-id="2,7,27" node-id="833" stroke="none" target-height="5.5" target-width="135.59999" target-x="39.8" target-y="91.8"></path></g><g node-id="1299"><path d="M 79.30 97.30 L 129.70 97.30 L 129.70 174.10 L 79.30 174.10 Z" fill="#6e6e96" fill-opacity="0.51" fill-rule="nonzero" group-id="2,7,28" node-id="838" stroke="none" target-height="76.8" target-width="50.399994" target-x="79.3" target-y="97.3"></path></g><g node-id="1300"><path d="M 133.10 97.30 L 174.00 97.30 L 174.00 174.10 L 133.10 174.10 Z" fill="#6e6e96" fill-opacity="0.51" fill-rule="nonzero" group-id="2,7,29" node-id="843" stroke="none" target-height="76.8" target-width="40.899994" target-x="133.1" target-y="97.3"></path></g><path d="M 77.90 169.90 L 174.00 169.90 L 174.00 173.60 L 77.90 173.60 Z" fill="#a3acd9" fill-rule="nonzero" group-id="2,7" node-id="846" stroke="none" target-height="3.7000122" target-width="96.1" target-x="77.9" target-y="169.9"></path><path d="M 72.90 150.10 L 133.10 150.10 L 133.10 153.80 L 72.90 153.80 Z" fill="#a3acd9" fill-rule="nonzero" group-id="2,7" node-id="848" stroke="none" target-height="3.699997" target-width="60.200005" target-x="72.9" target-y="150.1"></path><path d="M 79.30 102.20 L 129.70 102.20 L 129.70 103.20 L 79.30 103.20 Z" fill="#a3acd9" fill-rule="nonzero" group-id="2,7" node-id="850" stroke="none" target-height="1" target-width="50.399994" target-x="79.3" target-y="102.2"></path><path d="M 78.30 97.30 L 92.60 97.30 L 92.60 102.70 L 78.30 102.70 Z" fill="#a3acd9" fill-rule="nonzero" group-id="2,7" node-id="852" stroke="none" target-height="5.399994" target-width="14.299995" target-x="78.3" target-y="97.3"></path><path d="M 133.10 97.30 L 174.00 97.30 L 174.00 102.70 L 133.10 102.70 Z" fill="#a3acd9" fill-rule="nonzero" group-id="2,7" node-id="854" stroke="none" target-height="5.399994" target-width="40.899994" target-x="133.1" target-y="97.3"></path><path d="M 48.20 103.20 L 67.50 103.20 L 67.50 104.20 L 48.20 104.20 Z" fill="#ccccde" fill-rule="nonzero" group-id="2,7" node-id="856" stroke="none" target-height="1" target-width="19.3" target-x="48.2" target-y="103.2"></path><path d="M 53.10 108.20 L 73.20 108.20 L 73.20 109.20 L 53.10 109.20 Z" fill="#ccccde" fill-rule="nonzero" group-id="2,7" node-id="858" stroke="none" target-height="1" target-width="20.099998" target-x="53.1" target-y="108.2"></path><path d="M 53.10 113.40 L 68.40 113.40 L 68.40 114.40 L 53.10 114.40 Z" fill="#ccccde" fill-rule="nonzero" group-id="2,7" node-id="860" stroke="none" target-height="1" target-width="15.300003" target-x="53.1" target-y="113.4"></path><path d="M 172.50 81.60 L 42.60 81.60 L 40.40 81.80 L 36.60 83.20 L 33.40 85.90 L 32.20 87.60 L 30.80 91.40 L 30.60 98.70 L 31.30 94.50 L 33.40 90.90 L 36.60 88.30 L 38.40 87.40 L 42.60 86.70 L 172.50 86.70 L 176.70 87.40 L 178.60 88.30 L 181.70 90.90 L 183.80 94.50 L 184.50 98.70 L 184.30 91.40 L 182.90 87.60 L 180.30 84.40 L 178.60 83.20 L 174.70 81.80 L 172.50 81.60 Z" fill="#d5dbf7" fill-rule="nonzero" group-id="2,7" node-id="862" stroke="none" target-height="17.099998" target-width="153.9" target-x="30.6" target-y="81.6"></path><path d="M 53.10 118.80 L 59.80 118.80 L 59.80 119.80 L 53.10 119.80 Z" fill="#ccccde" fill-rule="nonzero" group-id="2,7" node-id="864" stroke="none" target-height="1" target-width="6.700001" target-x="53.1" target-y="118.8"></path><g node-id="1301"><path d="M 89.50 107.20 L 96.10 107.20 L 96.10 108.20 L 89.50 108.20 Z" fill="#ccccde" fill-rule="nonzero" group-id="2,7,30" node-id="868" stroke="none" target-height="1" target-width="6.5999985" target-x="89.5" target-y="107.2"></path><path d="M 100.90 107.20 L 112.30 107.20 L 112.30 108.20 L 100.90 108.20 Z" fill="#ffff9c" fill-rule="nonzero" group-id="2,7,30" node-id="870" stroke="none" target-height="1" target-width="11.400002" target-x="100.9" target-y="107.2"></path><path d="M 89.50 110.30 L 102.20 110.30 L 102.20 111.30 L 89.50 111.30 Z" fill="#ccccde" fill-rule="nonzero" group-id="2,7,30" node-id="872" stroke="none" target-height="1" target-width="12.699997" target-x="89.5" target-y="110.3"></path><path d="M 106.30 110.30 L 111.80 110.30 L 111.80 111.30 L 106.30 111.30 Z" fill="#ffff9c" fill-rule="nonzero" group-id="2,7,30" node-id="874" stroke="none" target-height="1" target-width="5.5" target-x="106.3" target-y="110.3"></path><path d="M 89.50 113.80 L 97.40 113.80 L 97.40 114.80 L 89.50 114.80 Z" fill="#ccccde" fill-rule="nonzero" group-id="2,7,30" node-id="876" stroke="none" target-height="1" target-width="7.9000015" target-x="89.5" target-y="113.8"></path><path d="M 101.70 113.80 L 104.70 113.80 L 104.70 114.80 L 101.70 114.80 Z" fill="#ffff9c" fill-rule="nonzero" group-id="2,7,30" node-id="878" stroke="none" target-height="1" target-width="3" target-x="101.7" target-y="113.8"></path><path d="M 89.50 117.10 L 99.70 117.10 L 99.70 118.10 L 89.50 118.10 Z" fill="#ccccde" fill-rule="nonzero" group-id="2,7,30" node-id="880" stroke="none" target-height="1" target-width="10.199997" target-x="89.5" target-y="117.1"></path><path d="M 95.10 120.20 L 105.00 120.20 L 105.00 121.20 L 95.10 121.20 Z" fill="#ccccde" fill-rule="nonzero" group-id="2,7,30" node-id="882" stroke="none" target-height="1" target-width="9.900002" target-x="95.1" target-y="120.2"></path><path d="M 109.00 120.20 L 112.30 120.20 L 112.30 121.20 L 109.00 121.20 Z" fill="#ffff9c" fill-rule="nonzero" group-id="2,7,30" node-id="884" stroke="none" target-height="1" target-width="3.300003" target-x="109" target-y="120.2"></path><path d="M 113.90 120.20 L 126.80 120.20 L 126.80 121.20 L 113.90 121.20 Z" fill="#ffff9c" fill-rule="nonzero" group-id="2,7,30" node-id="886" stroke="none" target-height="1" target-width="12.900002" target-x="113.9" target-y="120.2"></path><path d="M 89.50 124.00 L 91.80 124.00 L 91.80 125.00 L 89.50 125.00 Z" fill="#ccccde" fill-rule="nonzero" group-id="2,7,30" node-id="888" stroke="none" target-height="1" target-width="2.300003" target-x="89.5" target-y="124"></path><path d="M 89.50 127.30 L 95.50 127.30 L 95.50 128.30 L 89.50 128.30 Z" fill="#ccccde" fill-rule="nonzero" group-id="2,7,30" node-id="890" stroke="none" target-height="1" target-width="6" target-x="89.5" target-y="127.3"></path><path d="M 89.50 130.60 L 98.50 130.60 L 98.50 131.60 L 89.50 131.60 Z" fill="#ccccde" fill-rule="nonzero" group-id="2,7,30" node-id="892" stroke="none" target-height="1" target-width="9" target-x="89.5" target-y="130.6"></path><path d="M 103.50 130.60 L 106.30 130.60 L 106.30 131.60 L 103.50 131.60 Z" fill="#ffff9c" fill-rule="nonzero" group-id="2,7,30" node-id="894" stroke="none" target-height="1" target-width="2.800003" target-x="103.5" target-y="130.6"></path><path d="M 89.50 134.60 L 100.20 134.60 L 100.20 135.60 L 89.50 135.60 Z" fill="#ccccde" fill-rule="nonzero" group-id="2,7,30" node-id="896" stroke="none" target-height="1" target-width="10.699997" target-x="89.5" target-y="134.6"></path><path d="M 93.10 137.90 L 101.40 137.90 L 101.40 138.90 L 93.10 138.90 Z" fill="#ccccde" fill-rule="nonzero" group-id="2,7,30" node-id="898" stroke="none" target-height="1" target-width="8.300003" target-x="93.1" target-y="137.9"></path><path d="M 103.50 137.90 L 106.80 137.90 L 106.80 138.90 L 103.50 138.90 Z" fill="#ccccde" fill-rule="nonzero" group-id="2,7,30" node-id="900" stroke="none" target-height="1" target-width="3.300003" target-x="103.5" target-y="137.9"></path><path d="M 110.30 137.90 L 113.40 137.90 L 113.40 138.90 L 110.30 138.90 Z" fill="#ffff9c" fill-rule="nonzero" group-id="2,7,30" node-id="902" stroke="none" target-height="1" target-width="3.0999985" target-x="110.3" target-y="137.9"></path><path d="M 93.10 141.70 L 105.50 141.70 L 105.50 142.70 L 93.10 142.70 Z" fill="#ccccde" fill-rule="nonzero" group-id="2,7,30" node-id="904" stroke="none" target-height="1" target-width="12.400002" target-x="93.1" target-y="141.7"></path><path d="M 110.30 141.70 L 112.30 141.70 L 112.30 142.70 L 110.30 142.70 Z" fill="#ffff9c" fill-rule="nonzero" group-id="2,7,30" node-id="906" stroke="none" target-height="1" target-width="2" target-x="110.3" target-y="141.7"></path><path d="M 89.50 145.30 L 92.10 145.30 L 92.10 146.30 L 89.50 146.30 Z" fill="#ccccde" fill-rule="nonzero" group-id="2,7,30" node-id="908" stroke="none" target-height="1" target-width="2.5999985" target-x="89.5" target-y="145.3"></path></g><g node-id="1302"><path d="M 82.90 110.30 L 83.70 110.30 L 83.70 111.30 L 82.90 111.30 Z" fill="#ccccde" fill-rule="nonzero" group-id="2,7,31" node-id="913" stroke="none" target-height="1" target-width="0.7999954" target-x="82.9" target-y="110.3"></path><path d="M 82.90 113.80 L 83.70 113.80 L 83.70 114.80 L 82.90 114.80 Z" fill="#ccccde" fill-rule="nonzero" group-id="2,7,31" node-id="915" stroke="none" target-height="1" target-width="0.7999954" target-x="82.9" target-y="113.8"></path><path d="M 82.90 117.00 L 83.70 117.00 L 83.70 118.00 L 82.90 118.00 Z" fill="#ccccde" fill-rule="nonzero" group-id="2,7,31" node-id="917" stroke="none" target-height="1" target-width="0.7999954" target-x="82.9" target-y="117"></path><path d="M 82.90 120.10 L 83.70 120.10 L 83.70 121.10 L 82.90 121.10 Z" fill="#ccccde" fill-rule="nonzero" group-id="2,7,31" node-id="919" stroke="none" target-height="1" target-width="0.7999954" target-x="82.9" target-y="120.1"></path><path d="M 82.90 124.00 L 83.70 124.00 L 83.70 125.00 L 82.90 125.00 Z" fill="#ccccde" fill-rule="nonzero" group-id="2,7,31" node-id="921" stroke="none" target-height="1" target-width="0.7999954" target-x="82.9" target-y="124"></path><path d="M 82.90 127.30 L 83.70 127.30 L 83.70 128.30 L 82.90 128.30 Z" fill="#ccccde" fill-rule="nonzero" group-id="2,7,31" node-id="923" stroke="none" target-height="1" target-width="0.7999954" target-x="82.9" target-y="127.3"></path><path d="M 82.90 130.60 L 83.70 130.60 L 83.70 131.60 L 82.90 131.60 Z" fill="#ccccde" fill-rule="nonzero" group-id="2,7,31" node-id="925" stroke="none" target-height="1" target-width="0.7999954" target-x="82.9" target-y="130.6"></path><path d="M 83.00 134.60 L 83.70 134.60 L 83.70 135.60 L 83.00 135.60 Z" fill="#ccccde" fill-rule="nonzero" group-id="2,7,31" node-id="927" stroke="none" target-height="1" target-width="0.69999695" target-x="83" target-y="134.6"></path><path d="M 83.00 137.90 L 83.70 137.90 L 83.70 138.90 L 83.00 138.90 Z" fill="#ccccde" fill-rule="nonzero" group-id="2,7,31" node-id="929" stroke="none" target-height="1" target-width="0.69999695" target-x="83" target-y="137.9"></path><path d="M 83.00 141.70 L 83.70 141.70 L 83.70 142.70 L 83.00 142.70 Z" fill="#ccccde" fill-rule="nonzero" group-id="2,7,31" node-id="931" stroke="none" target-height="1" target-width="0.69999695" target-x="83" target-y="141.7"></path><path d="M 83.00 145.30 L 83.70 145.30 L 83.70 146.30 L 83.00 146.30 Z" fill="#ccccde" fill-rule="nonzero" group-id="2,7,31" node-id="933" stroke="none" target-height="1" target-width="0.69999695" target-x="83" target-y="145.3"></path><path d="M 82.90 107.20 L 83.70 107.20 L 83.70 108.20 L 82.90 108.20 Z" fill="#ccccde" fill-rule="nonzero" group-id="2,7,31" node-id="935" stroke="none" target-height="1" target-width="0.7999954" target-x="82.9" target-y="107.2"></path></g><path d="M 86.60 105.80 L 86.90 105.80 L 86.90 150.10 L 86.60 150.10 Z" fill="#5feaff" fill-rule="nonzero" group-id="2,7" node-id="938" stroke="none" target-height="44.300003" target-width="0.30000305" target-x="86.6" target-y="105.8"></path><g node-id="1303"><path d="M 135.80 106.80 L 142.20 106.80 L 142.20 107.80 L 135.80 107.80 Z" fill="#a1ffd2" fill-rule="nonzero" group-id="2,7,32" node-id="942" stroke="none" target-height="1" target-width="6.399994" target-x="135.8" target-y="106.8"></path><path d="M 146.90 106.80 L 157.80 106.80 L 157.80 107.80 L 146.90 107.80 Z" fill="#ccccde" fill-rule="nonzero" group-id="2,7,32" node-id="944" stroke="none" target-height="1" target-width="10.900009" target-x="146.9" target-y="106.8"></path><path d="M 135.80 109.80 L 148.10 109.80 L 148.10 110.80 L 135.80 110.80 Z" fill="#fcbaff" fill-rule="nonzero" group-id="2,7,32" node-id="946" stroke="none" target-height="1" target-width="12.300003" target-x="135.8" target-y="109.8"></path><path d="M 152.00 109.80 L 157.40 109.80 L 157.40 110.80 L 152.00 110.80 Z" fill="#ccccde" fill-rule="nonzero" group-id="2,7,32" node-id="948" stroke="none" target-height="1" target-width="5.399994" target-x="152" target-y="109.8"></path><path d="M 135.80 113.40 L 143.40 113.40 L 143.40 114.40 L 135.80 114.40 Z" fill="#ccccde" fill-rule="nonzero" group-id="2,7,32" node-id="950" stroke="none" target-height="1" target-width="7.599991" target-x="135.8" target-y="113.4"></path><path d="M 147.60 113.40 L 150.50 113.40 L 150.50 114.40 L 147.60 114.40 Z" fill="#fcbaff" fill-rule="nonzero" group-id="2,7,32" node-id="952" stroke="none" target-height="1" target-width="2.899994" target-x="147.6" target-y="113.4"></path><path d="M 135.80 116.70 L 145.60 116.70 L 145.60 117.70 L 135.80 117.70 Z" fill="#ccccde" fill-rule="nonzero" group-id="2,7,32" node-id="954" stroke="none" target-height="1" target-width="9.800003" target-x="135.8" target-y="116.7"></path><path d="M 141.20 119.70 L 150.80 119.70 L 150.80 120.70 L 141.20 120.70 Z" fill="#ccccde" fill-rule="nonzero" group-id="2,7,32" node-id="956" stroke="none" target-height="1" target-width="9.600006" target-x="141.2" target-y="119.7"></path><path d="M 154.70 119.70 L 157.80 119.70 L 157.80 120.70 L 154.70 120.70 Z" fill="#fcbaff" fill-rule="nonzero" group-id="2,7,32" node-id="958" stroke="none" target-height="1" target-width="3.100006" target-x="154.7" target-y="119.7"></path><path d="M 159.30 119.70 L 171.80 119.70 L 171.80 120.70 L 159.30 120.70 Z" fill="#ccccde" fill-rule="nonzero" group-id="2,7,32" node-id="960" stroke="none" target-height="1" target-width="12.5" target-x="159.3" target-y="119.7"></path><path d="M 135.80 123.50 L 138.00 123.50 L 138.00 124.50 L 135.80 124.50 Z" fill="#ccccde" fill-rule="nonzero" group-id="2,7,32" node-id="962" stroke="none" target-height="1" target-width="2.199997" target-x="135.8" target-y="123.5"></path><path d="M 135.80 126.80 L 141.60 126.80 L 141.60 127.80 L 135.80 127.80 Z" fill="#ccccde" fill-rule="nonzero" group-id="2,7,32" node-id="964" stroke="none" target-height="1" target-width="5.800003" target-x="135.8" target-y="126.8"></path><path d="M 135.80 130.10 L 144.50 130.10 L 144.50 131.10 L 135.80 131.10 Z" fill="#ccccde" fill-rule="nonzero" group-id="2,7,32" node-id="966" stroke="none" target-height="1" target-width="8.699997" target-x="135.8" target-y="130.1"></path><path d="M 149.30 130.10 L 152.00 130.10 L 152.00 131.10 L 149.30 131.10 Z" fill="#ccccde" fill-rule="nonzero" group-id="2,7,32" node-id="968" stroke="none" target-height="1" target-width="2.699997" target-x="149.3" target-y="130.1"></path><path d="M 135.80 134.20 L 146.10 134.20 L 146.10 135.20 L 135.80 135.20 Z" fill="#a1ffd2" fill-rule="nonzero" group-id="2,7,32" node-id="970" stroke="none" target-height="1" target-width="10.300003" target-x="135.8" target-y="134.2"></path><path d="M 139.30 137.50 L 147.30 137.50 L 147.30 138.50 L 139.30 138.50 Z" fill="#ccccde" fill-rule="nonzero" group-id="2,7,32" node-id="972" stroke="none" target-height="1" target-width="8" target-x="139.3" target-y="137.5"></path><path d="M 149.30 137.50 L 152.50 137.50 L 152.50 138.50 L 149.30 138.50 Z" fill="#ccccde" fill-rule="nonzero" group-id="2,7,32" node-id="974" stroke="none" target-height="1" target-width="3.199997" target-x="149.3" target-y="137.5"></path><path d="M 155.90 137.50 L 158.80 137.50 L 158.80 138.50 L 155.90 138.50 Z" fill="#ccccde" fill-rule="nonzero" group-id="2,7,32" node-id="976" stroke="none" target-height="1" target-width="2.9000092" target-x="155.9" target-y="137.5"></path><path d="M 139.30 141.30 L 151.30 141.30 L 151.30 142.30 L 139.30 142.30 Z" fill="#fcbaff" fill-rule="nonzero" group-id="2,7,32" node-id="978" stroke="none" target-height="1" target-width="12" target-x="139.3" target-y="141.3"></path><path d="M 155.90 141.30 L 157.80 141.30 L 157.80 142.30 L 155.90 142.30 Z" fill="#ccccde" fill-rule="nonzero" group-id="2,7,32" node-id="980" stroke="none" target-height="1" target-width="1.9000092" target-x="155.9" target-y="141.3"></path><path d="M 135.80 144.80 L 138.30 144.80 L 138.30 145.80 L 135.80 145.80 Z" fill="#ccccde" fill-rule="nonzero" group-id="2,7,32" node-id="982" stroke="none" target-height="1" target-width="2.5" target-x="135.8" target-y="144.8"></path></g><path d="M 46.20 97.30 L 46.70 97.30 L 46.70 174.10 L 46.20 174.10 Z" fill="#6e6e96" fill-rule="nonzero" group-id="2,7" node-id="985" stroke="none" target-height="76.8" target-width="0.5" target-x="46.2" target-y="97.3"></path><g node-id="1304"><path d="M 173.00 209.30 L 43.10 209.30 L 40.70 209.10 L 38.40 208.50 L 34.40 206.10 L 31.40 202.60 L 30.40 200.50 L 29.80 198.30 L 29.60 195.80 L 29.60 180.50 L 186.50 180.50 L 186.50 195.80 L 186.30 198.30 L 185.70 200.50 L 183.30 204.50 L 179.80 207.50 L 177.70 208.50 L 175.50 209.10 L 173.00 209.30 Z M 32.60 183.50 L 32.60 195.80 L 33.30 199.50 L 35.10 202.60 L 37.80 204.90 L 41.20 206.20 L 43.10 206.30 L 174.90 206.20 L 176.70 205.70 L 179.80 203.90 L 182.10 201.10 L 182.90 199.50 L 183.50 195.80 L 183.50 183.50 L 32.60 183.50 Z" fill="#6e6e96" fill-rule="nonzero" group-id="2,7,33" node-id="989" stroke="none" target-height="28.800003" target-width="156.9" target-x="29.6" target-y="180.5"></path></g><g node-id="1305"><path d="M 186.50 191.60 L 183.50 191.60 L 183.40 92.90 L 182.10 89.50 L 179.80 86.70 L 176.70 84.90 L 173.00 84.30 L 43.10 84.30 L 39.40 84.90 L 36.30 86.70 L 34.00 89.50 L 33.30 91.10 L 32.60 94.80 L 32.60 191.60 L 29.60 191.60 L 29.60 94.80 L 29.80 92.30 L 30.40 90.10 L 31.40 88.00 L 34.40 84.50 L 38.40 82.10 L 40.70 81.50 L 43.10 81.30 L 173.00 81.30 L 175.50 81.50 L 177.70 82.10 L 181.70 84.50 L 184.70 88.00 L 185.70 90.10 L 186.30 92.30 L 186.50 94.80 L 186.50 191.60 Z" fill="#6e6e96" fill-rule="nonzero" group-id="2,7,34" node-id="994" stroke="none" target-height="110.3" target-width="156.9" target-x="29.6" target-y="81.3"></path></g><g node-id="1306"><path d="M 173.00 202.00 L 43.10 202.00 L 38.90 201.30 L 35.40 199.20 L 32.70 196.00 L 31.80 194.20 L 31.10 190.00 L 31.30 198.00 L 32.70 201.90 L 33.90 203.60 L 37.10 206.20 L 40.90 207.60 L 43.10 207.80 L 173.00 207.80 L 175.20 207.60 L 179.10 206.20 L 180.80 205.00 L 183.40 201.90 L 184.80 198.00 L 185.00 190.00 L 184.30 194.20 L 183.40 196.00 L 180.80 199.20 L 177.20 201.30 L 173.00 202.00 Z" fill="#6e6e96" fill-opacity="0.15" fill-rule="nonzero" group-id="2,7,35" node-id="999" stroke="none" target-height="17.800003" target-width="153.9" target-x="31.1" target-y="190"></path></g><g node-id="1307"><path d="M 31.10 177.20 L 185.00 177.20 L 185.00 182.00 L 31.10 182.00 Z" fill="#6e6e96" fill-opacity="0.15" fill-rule="nonzero" group-id="2,7,36" node-id="1004" stroke="none" target-height="4.800003" target-width="153.9" target-x="31.1" target-y="177.2"></path></g><g node-id="1308"><path d="M 86.10 207.80 L 130.00 207.80 L 130.00 215.50 L 86.10 215.50 Z" fill="#6e6e96" fill-opacity="0.15" fill-rule="nonzero" group-id="2,7,37" node-id="1009" stroke="none" target-height="7.699997" target-width="43.9" target-x="86.1" target-y="207.8"></path></g><g node-id="1309"><path d="M 121.70 228.30 L 139.60 228.30 L 139.60 234.30 L 121.70 234.30 Z" fill="#6e6e96" fill-opacity="0.15" fill-rule="nonzero" group-id="2,7,38" node-id="1014" stroke="none" target-height="6" target-width="17.90001" target-x="121.7" target-y="228.3"></path></g><path d="M 112.60 195.70 L 101.90 195.60 L 101.10 194.80 L 101.00 194.20 L 101.10 193.60 L 101.90 192.80 L 113.20 192.80 L 114.00 193.60 L 114.00 194.80 L 113.20 195.60 L 112.60 195.70 Z" fill="#6e6e96" fill-rule="nonzero" group-id="2,7" node-id="1017" stroke="none" target-height="2.899994" target-width="13" target-x="101" target-y="192.8"></path><g node-id="1310"><path d="M 39.80 125.20 L 67.70 97.30 L 109.60 97.30 L 40.40 166.40 Z" fill="#ffffff" fill-opacity="0.17" fill-rule="nonzero" group-id="2,7,39" node-id="1021" stroke="none" target-height="69.09999" target-width="69.8" target-x="39.8" target-y="97.3"></path></g><g node-id="1311"><path d="M 129.70 97.30 L 52.60 174.40 L 64.40 174.40 L 141.50 97.30 Z" fill="#ffffff" fill-opacity="0.2" fill-rule="nonzero" group-id="2,7,40" node-id="1026" stroke="none" target-height="77.09999" target-width="88.9" target-x="52.6" target-y="97.3"></path></g><path d="M 175.40 175.60 L 39.20 175.40 L 38.40 174.60 L 38.30 174.10 L 38.30 91.80 L 38.40 91.20 L 39.20 90.40 L 176.00 90.40 L 176.80 91.20 L 176.90 91.80 L 176.90 174.10 L 176.50 175.10 L 175.40 175.60 Z M 41.30 172.60 L 173.90 172.60 L 173.90 93.30 L 41.30 93.30 L 41.30 172.60 Z" fill="#6e6e96" fill-rule="nonzero" group-id="2,7" node-id="1029" stroke="none" target-height="85.200005" target-width="138.59999" target-x="38.3" target-y="90.4"></path></g><g node-id="1279"><g node-id="1312"><path d="M 243.10 221.80 L 242.90 223.80 L 242.10 225.50 L 241.00 227.00 L 239.50 228.10 L 237.80 228.90 L 235.80 229.10 L 129.50 229.10 L 127.50 228.90 L 125.80 228.10 L 124.30 227.00 L 123.20 225.50 L 122.40 223.80 L 122.20 221.80 L 122.30 144.80 L 123.20 142.20 L 124.30 140.80 L 125.80 140.10 L 129.50 139.60 L 235.80 139.60 L 239.50 140.10 L 241.00 140.80 L 242.10 142.20 L 242.60 143.30 L 243.10 146.90 L 243.10 221.80 Z" fill="#bbc0d9" fill-rule="nonzero" group-id="2,8,41" node-id="1036" stroke="none" target-height="89.5" target-width="120.90001" target-x="122.2" target-y="139.6"></path></g><path d="M 132.90 149.20 L 233.20 149.20 L 233.20 214.70 L 132.90 214.70 Z" fill="#b3dae3" fill-rule="nonzero" group-id="2,8" node-id="1039" stroke="none" target-height="65.5" target-width="100.3" target-x="132.9" target-y="149.2"></path><g node-id="1313"><path d="M 132.90 149.20 L 233.20 149.20 L 233.20 155.30 L 132.90 155.30 Z" fill="#ffffff" fill-opacity="0.69" fill-rule="nonzero" group-id="2,8,42" node-id="1043" stroke="none" target-height="6.100006" target-width="100.3" target-x="132.9" target-y="149.2"></path></g><g node-id="1314"><path d="M 132.90 155.30 L 233.20 155.30 L 233.20 169.80 L 132.90 169.80 Z" fill="#015353" fill-opacity="0.23" fill-rule="nonzero" group-id="2,8,43" node-id="1048" stroke="none" target-height="14.5" target-width="100.3" target-x="132.9" target-y="155.3"></path></g><g node-id="1315"><path d="M 146.20 191.30 L 160.80 191.30 L 160.80 204.90 L 146.20 204.90 Z" fill="#003cff" fill-opacity="0.23" fill-rule="nonzero" group-id="2,8,44" node-id="1053" stroke="none" target-height="13.599991" target-width="14.600006" target-x="146.2" target-y="191.3"></path></g><g node-id="1316"><path d="M 166.20 191.30 L 180.70 191.30 L 180.70 204.90 L 166.20 204.90 Z" fill="#ffbf00" fill-opacity="0.23" fill-rule="nonzero" group-id="2,8,45" node-id="1058" stroke="none" target-height="13.599991" target-width="14.5" target-x="166.2" target-y="191.3"></path></g><g node-id="1317"><path d="M 206.40 191.30 L 221.00 191.30 L 221.00 204.90 L 206.40 204.90 Z" fill="#ffffff" fill-opacity="0.52" fill-rule="nonzero" group-id="2,8,46" node-id="1063" stroke="none" target-height="13.599991" target-width="14.600006" target-x="206.4" target-y="191.3"></path></g><g node-id="1318"><path d="M 148.90 208.50 L 158.10 208.50 L 158.10 209.50 L 148.90 209.50 Z" fill="#000000" fill-opacity="0.3" fill-rule="nonzero" group-id="2,8,47" node-id="1068" stroke="none" target-height="1" target-width="9.200012" target-x="148.9" target-y="208.5"></path></g><g node-id="1319"><path d="M 168.80 208.50 L 178.10 208.50 L 178.10 209.50 L 168.80 209.50 Z" fill="#000000" fill-opacity="0.3" fill-rule="nonzero" group-id="2,8,48" node-id="1073" stroke="none" target-height="1" target-width="9.300003" target-x="168.8" target-y="208.5"></path></g><g node-id="1320"><g node-id="1350"><path d="M 186.50 191.30 L 201.00 191.30 L 201.00 204.90 L 186.50 204.90 Z" fill="#00a33d" fill-opacity="0.23" fill-rule="nonzero" group-id="2,8,49,79" node-id="1080" stroke="none" target-height="13.599991" target-width="14.5" target-x="186.5" target-y="191.3"></path></g><path d="M 189.10 208.50 L 198.40 208.50 L 198.40 209.50 L 189.10 209.50 Z" fill="#000000" fill-opacity="0.3" fill-rule="nonzero" group-id="2,8,49,80" node-id="1085" stroke="none" target-height="1" target-width="9.299988" target-x="189.1" target-y="208.5"></path></g><g node-id="1321"><path d="M 209.10 208.50 L 218.30 208.50 L 218.30 209.50 L 209.10 209.50 Z" fill="#000000" fill-opacity="0.3" fill-rule="nonzero" group-id="2,8,50" node-id="1091" stroke="none" target-height="1" target-width="9.199997" target-x="209.1" target-y="208.5"></path></g><g node-id="1322"><path d="M 123.10 220.30 L 241.80 220.30 L 241.80 227.70 L 123.10 227.70 Z" fill="#6e6e96" fill-opacity="0.15" fill-rule="nonzero" group-id="2,8,51" node-id="1096" stroke="none" target-height="7.399994" target-width="118.700005" target-x="123.1" target-y="220.3"></path></g><path d="M 175.10 176.00 L 191.70 176.00 L 191.70 179.00 L 175.10 179.00 Z" fill="#3f3f3f" fill-rule="nonzero" group-id="2,8" node-id="1099" stroke="none" target-height="3" target-width="16.59999" target-x="175.1" target-y="176"></path><g node-id="1323"><path d="M 132.90 155.30 L 233.20 155.30 L 233.20 157.00 L 132.90 157.00 Z" fill="#015353" fill-opacity="0.14" fill-rule="nonzero" group-id="2,8,52" node-id="1103" stroke="none" target-height="1.699997" target-width="100.3" target-x="132.9" target-y="155.3"></path></g><g node-id="1324"><path d="M 235.40 139.40 L 127.00 139.50 L 125.30 139.90 L 123.90 140.60 L 122.70 141.90 L 121.90 144.60 L 121.70 150.80 L 122.20 147.10 L 122.70 146.00 L 123.90 144.70 L 125.30 144.00 L 129.00 143.50 L 237.40 143.60 L 239.10 144.00 L 240.50 144.70 L 241.70 146.00 L 242.50 148.70 L 242.70 150.80 L 242.50 144.60 L 241.70 141.90 L 240.50 140.60 L 239.10 139.90 L 235.40 139.40 Z" fill="#ffffff" fill-opacity="0.42" fill-rule="nonzero" group-id="2,8,53" node-id="1108" stroke="none" target-height="11.400009" target-width="121" target-x="121.7" target-y="139.4"></path></g><g node-id="1325"><path d="M 171.70 181.70 L 195.40 181.70 L 195.40 183.70 L 171.70 183.70 Z" fill="#000000" fill-opacity="0.18" fill-rule="nonzero" group-id="2,8,54" node-id="1113" stroke="none" target-height="2" target-width="23.699997" target-x="171.7" target-y="181.7"></path></g><g node-id="1326"><path d="M 234.90 230.60 L 130.40 230.60 L 128.00 230.30 L 125.90 229.40 L 124.20 228.00 L 122.80 226.30 L 121.90 224.20 L 121.60 221.80 L 121.60 146.90 L 121.80 144.40 L 122.90 141.20 L 124.90 139.20 L 128.20 138.20 L 234.90 138.10 L 239.10 138.70 L 241.50 140.00 L 243.10 142.50 L 243.70 146.90 L 243.70 221.80 L 243.40 224.20 L 242.50 226.30 L 241.20 228.00 L 239.40 229.40 L 237.30 230.30 L 234.90 230.60 Z M 130.40 141.10 L 128.40 141.20 L 126.00 142.20 L 125.30 143.00 L 124.80 144.50 L 124.60 146.90 L 124.60 221.80 L 124.80 223.40 L 126.30 225.90 L 128.80 227.40 L 130.40 227.60 L 234.90 227.60 L 236.50 227.40 L 239.00 225.90 L 240.50 223.40 L 240.70 221.80 L 240.70 146.90 L 240.50 144.50 L 240.00 143.00 L 239.30 142.20 L 236.90 141.20 L 234.90 141.10 L 130.40 141.10 Z" fill="#6e6e96" fill-rule="nonzero" group-id="2,8,55" node-id="1118" stroke="none" target-height="92.5" target-width="122.1" target-x="121.6" target-y="138.1"></path></g><g node-id="1327"><path d="M 252.60 224.40 L 194.20 224.40 L 194.20 226.90 L 174.10 226.90 L 174.10 224.40 L 114.90 224.40 L 115.20 226.30 L 114.90 226.30 L 114.90 228.00 L 115.70 231.70 L 116.70 233.30 L 117.60 234.10 L 120.70 234.80 L 246.80 234.80 L 249.90 234.10 L 250.80 233.30 L 251.80 231.70 L 252.60 228.00 L 252.60 226.30 L 252.30 226.30 L 252.60 224.40 Z" fill="#ffffff" fill-rule="nonzero" group-id="2,8,56" node-id="1123" stroke="none" target-height="10.400009" target-width="137.70001" target-x="114.9" target-y="224.4"></path></g><g node-id="1328"><path d="M 245.90 236.30 L 118.00 236.10 L 115.50 235.10 L 114.20 233.80 L 112.80 230.60 L 112.50 224.40 L 112.90 223.40 L 114.00 222.90 L 173.10 222.90 L 173.70 223.10 L 174.50 223.80 L 174.60 225.40 L 191.70 225.40 L 191.90 223.80 L 192.60 223.10 L 193.20 222.90 L 251.70 222.90 L 252.80 223.40 L 253.20 224.40 L 253.10 229.00 L 252.30 232.30 L 251.40 233.80 L 250.10 235.10 L 247.70 236.10 L 245.90 236.30 Z M 115.50 227.10 L 115.70 229.90 L 116.40 231.70 L 117.10 232.50 L 118.20 233.10 L 119.80 233.30 L 245.90 233.30 L 247.50 233.10 L 248.50 232.50 L 249.30 231.70 L 249.90 229.90 L 250.20 227.10 L 250.00 225.90 L 194.70 225.90 L 194.60 227.50 L 193.80 228.30 L 193.20 228.40 L 173.10 228.40 L 172.60 228.30 L 171.80 227.50 L 171.60 225.90 L 115.70 225.90 L 115.50 227.10 Z" fill="#6e6e96" fill-rule="nonzero" group-id="2,8,57" node-id="1128" stroke="none" target-height="13.400009" target-width="140.7" target-x="112.5" target-y="222.9"></path></g><g node-id="1329"><path d="M 134.30 172.30 L 152.90 150.10 L 186.40 150.10 L 134.80 205.30 Z" fill="#ffffff" fill-opacity="0.17" fill-rule="nonzero" group-id="2,8,58" node-id="1133" stroke="none" target-height="55.199997" target-width="52.09999" target-x="134.3" target-y="150.1"></path></g><g node-id="1330"><path d="M 202.40 150.10 L 140.80 211.70 L 150.30 211.70 L 211.90 150.10 Z" fill="#ffffff" fill-opacity="0.2" fill-rule="nonzero" group-id="2,8,59" node-id="1138" stroke="none" target-height="61.59999" target-width="71.09999" target-x="140.8" target-y="150.1"></path></g><path d="M 233.20 216.20 L 132.90 216.20 L 131.80 215.70 L 131.40 214.70 L 131.40 149.20 L 131.80 148.10 L 132.90 147.70 L 233.20 147.70 L 234.30 148.10 L 234.70 149.20 L 234.70 214.70 L 234.30 215.70 L 233.20 216.20 Z M 134.40 213.20 L 231.70 213.20 L 231.70 150.70 L 134.40 150.70 L 134.40 213.20 Z" fill="#6e6e96" fill-rule="nonzero" group-id="2,8" node-id="1141" stroke="none" target-height="68.5" target-width="103.3" target-x="131.4" target-y="147.7"></path><g node-id="1331"><path d="M 114.10 224.30 L 114.20 225.40 Z M 246.00 231.40 L 119.90 231.40 L 118.00 231.10 L 116.70 230.60 L 115.80 229.80 L 114.10 226.20 L 114.30 229.80 L 114.90 231.60 L 115.90 233.20 L 116.80 234.00 L 118.10 234.50 L 119.90 234.70 L 246.00 234.70 L 247.80 234.50 L 249.10 234.00 L 250.00 233.20 L 251.00 231.60 L 251.60 229.80 L 251.80 226.20 L 251.60 226.20 L 251.10 228.10 L 250.10 229.80 L 249.20 230.60 L 247.90 231.10 L 246.00 231.40 Z M 251.80 224.30 L 251.70 225.40 L 251.80 224.30 Z" fill="#6e6e96" fill-opacity="0.15" fill-rule="nonzero" group-id="2,8,60" node-id="1145" stroke="none" target-height="10.399994" target-width="137.70001" target-x="114.1" target-y="224.3"></path></g></g><g node-id="1280"><g node-id="1332"><path d="M 10.30 235.30 L 0.70 235.20 L -0.10 234.40 L -0.30 233.80 L -0.10 233.20 L 0.70 232.40 L 10.90 232.40 L 11.70 233.20 L 11.70 234.40 L 10.90 235.20 L 10.30 235.30 Z" fill="#d8d8f5" fill-opacity="0.45" fill-rule="nonzero" group-id="2,9,61" node-id="1153" stroke="none" target-height="2.9000092" target-width="12" target-x="-0.3" target-y="232.4"></path></g><g node-id="1333"><path d="M 56.40 235.30 L 45.40 235.20 L 44.60 234.40 L 44.60 233.20 L 45.40 232.40 L 46.00 232.30 L 57.00 232.40 L 57.80 233.20 L 57.80 234.40 L 57.00 235.20 L 56.40 235.30 Z" fill="#d8d8f5" fill-opacity="0.45" fill-rule="nonzero" group-id="2,9,62" node-id="1158" stroke="none" target-height="3" target-width="13.200001" target-x="44.6" target-y="232.3"></path></g><g node-id="1334"><path d="M 68.20 235.30 L 62.50 235.20 L 61.70 234.40 L 61.60 233.80 L 61.70 233.20 L 62.50 232.40 L 68.80 232.40 L 69.60 233.20 L 69.60 234.40 L 68.80 235.20 L 68.20 235.30 Z" fill="#d8d8f5" fill-opacity="0.45" fill-rule="nonzero" group-id="2,9,63" node-id="1163" stroke="none" target-height="2.9000092" target-width="8" target-x="61.6" target-y="232.4"></path></g><path d="M 51.30 227.10 L 51.00 229.00 L 50.30 230.60 L 49.20 232.00 L 47.80 233.10 L 46.20 233.80 L 44.30 234.10 L 13.60 234.10 L 11.70 233.80 L 10.10 233.10 L 8.70 232.00 L 7.60 230.60 L 6.90 229.00 L 6.70 227.10 L 6.70 160.20 L 6.90 158.40 L 7.60 156.70 L 8.70 155.30 L 10.10 154.20 L 11.70 153.50 L 13.60 153.30 L 44.30 153.30 L 46.20 153.50 L 47.80 154.20 L 49.20 155.30 L 50.30 156.70 L 51.00 158.40 L 51.30 160.20 L 51.30 227.10 Z" fill="#f0f0ff" fill-rule="nonzero" group-id="2,9" node-id="1166" stroke="none" target-height="80.8" target-width="44.6" target-x="6.7" target-y="153.3"></path><path d="M 51.30 227.10 L 51.00 229.00 L 50.30 230.60 L 49.20 232.00 L 47.80 233.10 L 46.20 233.80 L 44.30 234.10 L 13.60 234.10 L 11.70 233.80 L 10.10 233.10 L 8.70 232.00 L 7.60 230.60 L 6.90 229.00 L 6.70 227.10 L 6.70 160.20 L 6.90 158.40 L 7.60 156.70 L 8.70 155.30 L 10.10 154.20 L 11.70 153.50 L 13.60 153.30 L 44.30 153.30 L 46.20 153.50 L 47.80 154.20 L 49.20 155.30 L 50.30 156.70 L 51.00 158.40 L 51.30 160.20 L 51.30 227.10 Z" fill="#ffffff" fill-rule="nonzero" group-id="2,9" node-id="1168" stroke="none" target-height="80.8" target-width="44.6" target-x="6.7" target-y="153.3"></path><path d="M 6.70 162.10 L 51.30 162.10 L 51.30 224.60 L 6.70 224.60 Z" fill="#bddcff" fill-rule="nonzero" group-id="2,9" node-id="1170" stroke="none" target-height="62.5" target-width="44.6" target-x="6.7" target-y="162.1"></path><g node-id="1335"><path d="M 8.70 224.60 L 51.30 182.00 L 51.30 196.30 L 23.10 224.60 Z" fill="#deefff" fill-opacity="0.49" fill-rule="nonzero" group-id="2,9,64" node-id="1174" stroke="none" target-height="42.600006" target-width="42.6" target-x="8.7" target-y="182"></path></g><g node-id="1336"><path d="M 51.30 196.30 L 23.10 224.60 L 51.30 224.60 Z" fill="#ffffff" fill-opacity="0.4" fill-rule="nonzero" group-id="2,9,65" node-id="1179" stroke="none" target-height="28.300003" target-width="28.199999" target-x="23.1" target-y="196.3"></path></g><path d="M 6.70 160.10 L 51.30 160.10 L 51.30 163.10 L 6.70 163.10 Z" fill="#6e6e96" fill-rule="nonzero" group-id="2,9" node-id="1182" stroke="none" target-height="3" target-width="44.6" target-x="6.7" target-y="160.1"></path><path d="M 6.70 223.10 L 51.30 223.10 L 51.30 226.10 L 6.70 226.10 Z" fill="#6e6e96" fill-rule="nonzero" group-id="2,9" node-id="1184" stroke="none" target-height="3" target-width="44.6" target-x="6.7" target-y="223.1"></path><path d="M 32.00 158.50 L 26.00 158.50 L 25.20 158.20 L 25.00 157.50 L 25.20 156.80 L 26.00 156.50 L 32.00 156.50 L 32.70 156.80 L 33.00 157.50 L 32.70 158.20 L 32.00 158.50 Z" fill="#6e6e96" fill-rule="nonzero" group-id="2,9" node-id="1186" stroke="none" target-height="2" target-width="8" target-x="25" target-y="156.5"></path><path d="M 29.00 232.80 L 27.60 232.50 L 26.60 231.80 L 25.80 230.70 L 25.60 229.40 L 25.80 228.10 L 26.60 227.00 L 27.60 226.30 L 29.00 226.00 L 30.30 226.30 L 31.40 227.00 L 32.10 228.10 L 32.40 229.40 L 32.10 230.70 L 31.40 231.80 L 30.30 232.50 L 29.00 232.80 Z M 29.00 228.00 L 28.40 228.10 L 27.70 228.90 L 27.70 230.00 L 28.40 230.70 L 29.50 230.70 L 30.20 230.00 L 30.20 228.90 L 29.50 228.10 L 29.00 228.00 Z" fill="#6e6e96" fill-rule="nonzero" group-id="2,9" node-id="1188" stroke="none" target-height="6.800003" target-width="6.800001" target-x="25.6" target-y="226"></path><g node-id="1337"><path d="M 51.30 161.60 L 6.70 161.60 L 6.70 224.60 L 8.70 224.60 L 8.70 163.70 L 51.30 163.70 Z" fill="#6e6e96" fill-opacity="0.15" fill-rule="nonzero" group-id="2,9,66" node-id="1192" stroke="none" target-height="63" target-width="44.6" target-x="6.7" target-y="161.6"></path></g><g node-id="1338"><path d="M 6.70 158.80 L 51.30 158.80 L 51.30 160.60 L 6.70 160.60 Z" fill="#6e6e96" fill-opacity="0.15" fill-rule="nonzero" group-id="2,9,67" node-id="1197" stroke="none" target-height="1.800003" target-width="44.6" target-x="6.7" target-y="158.8"></path></g><g node-id="1339"><path d="M 44.60 230.60 L 12.00 230.40 L 10.40 229.90 L 9.00 229.00 L 8.00 227.80 L 7.30 226.00 L 7.00 223.60 L 7.10 227.40 L 7.90 229.90 L 9.00 231.20 L 10.40 231.90 L 13.90 232.30 L 46.50 232.10 L 48.20 231.60 L 49.50 230.70 L 50.60 229.50 L 51.30 227.70 L 51.60 223.60 L 51.30 225.50 L 50.60 227.10 L 49.50 228.50 L 48.10 229.60 L 46.50 230.30 L 44.60 230.60 Z" fill="#6e6e96" fill-opacity="0.15" fill-rule="nonzero" group-id="2,9,68" node-id="1202" stroke="none" target-height="8.699997" target-width="44.6" target-x="7" target-y="223.6"></path></g><g node-id="1340"><path d="M 18.60 165.70 L 18.60 207.20 L 48.20 207.20 L 48.20 165.70 L 18.60 165.70 Z M 18.60 221.20 L 48.20 221.20 L 48.20 209.50 L 18.60 209.50 L 18.60 221.20 Z" fill="#6e6e96" fill-opacity="0.51" fill-rule="nonzero" group-id="2,9,69" node-id="1207" stroke="none" target-height="55.5" target-width="29.6" target-x="18.6" target-y="165.7"></path></g><g node-id="1341"><path d="M 20.60 172.40 L 25.20 172.40 L 25.20 173.40 L 20.60 173.40 Z" fill="#a1ffd2" fill-rule="nonzero" group-id="2,9,70" node-id="1212" stroke="none" target-height="1" target-width="4.6000004" target-x="20.6" target-y="172.4"></path><path d="M 28.60 172.40 L 36.50 172.40 L 36.50 173.40 L 28.60 173.40 Z" fill="#ccccde" fill-rule="nonzero" group-id="2,9,70" node-id="1214" stroke="none" target-height="1" target-width="7.8999996" target-x="28.6" target-y="172.4"></path><path d="M 20.60 174.60 L 29.50 174.60 L 29.50 175.60 L 20.60 175.60 Z" fill="#fcbaff" fill-rule="nonzero" group-id="2,9,70" node-id="1216" stroke="none" target-height="1" target-width="8.9" target-x="20.6" target-y="174.6"></path><path d="M 32.30 174.60 L 36.20 174.60 L 36.20 175.60 L 32.30 175.60 Z" fill="#ccccde" fill-rule="nonzero" group-id="2,9,70" node-id="1218" stroke="none" target-height="1" target-width="3.9000015" target-x="32.3" target-y="174.6"></path><path d="M 20.60 177.20 L 26.10 177.20 L 26.10 178.20 L 20.60 178.20 Z" fill="#ccccde" fill-rule="nonzero" group-id="2,9,70" node-id="1220" stroke="none" target-height="1" target-width="5.5" target-x="20.6" target-y="177.2"></path><path d="M 29.10 177.20 L 31.20 177.20 L 31.20 178.20 L 29.10 178.20 Z" fill="#fcbaff" fill-rule="nonzero" group-id="2,9,70" node-id="1222" stroke="none" target-height="1" target-width="2.1000004" target-x="29.1" target-y="177.2"></path><path d="M 20.60 179.60 L 27.70 179.60 L 27.70 180.60 L 20.60 180.60 Z" fill="#ccccde" fill-rule="nonzero" group-id="2,9,70" node-id="1224" stroke="none" target-height="1" target-width="7.1000004" target-x="20.6" target-y="179.6"></path><path d="M 24.50 181.80 L 31.40 181.80 L 31.40 182.80 L 24.50 182.80 Z" fill="#ccccde" fill-rule="nonzero" group-id="2,9,70" node-id="1226" stroke="none" target-height="1" target-width="6.8999996" target-x="24.5" target-y="181.8"></path><path d="M 34.20 181.80 L 36.50 181.80 L 36.50 182.80 L 34.20 182.80 Z" fill="#fcbaff" fill-rule="nonzero" group-id="2,9,70" node-id="1228" stroke="none" target-height="1" target-width="2.2999992" target-x="34.2" target-y="181.8"></path><path d="M 37.60 181.80 L 46.60 181.80 L 46.60 182.80 L 37.60 182.80 Z" fill="#ccccde" fill-rule="nonzero" group-id="2,9,70" node-id="1230" stroke="none" target-height="1" target-width="9" target-x="37.6" target-y="181.8"></path><path d="M 20.60 184.50 L 22.20 184.50 L 22.20 185.50 L 20.60 185.50 Z" fill="#ccccde" fill-rule="nonzero" group-id="2,9,70" node-id="1232" stroke="none" target-height="1" target-width="1.6000004" target-x="20.6" target-y="184.5"></path><path d="M 20.60 186.90 L 24.80 186.90 L 24.80 187.90 L 20.60 187.90 Z" fill="#ccccde" fill-rule="nonzero" group-id="2,9,70" node-id="1234" stroke="none" target-height="1" target-width="4.199999" target-x="20.6" target-y="186.9"></path><path d="M 20.60 189.30 L 26.80 189.30 L 26.80 190.30 L 20.60 190.30 Z" fill="#ccccde" fill-rule="nonzero" group-id="2,9,70" node-id="1236" stroke="none" target-height="1" target-width="6.199999" target-x="20.6" target-y="189.3"></path><path d="M 30.30 189.30 L 32.30 189.30 L 32.30 190.30 L 30.30 190.30 Z" fill="#ccccde" fill-rule="nonzero" group-id="2,9,70" node-id="1238" stroke="none" target-height="1" target-width="2" target-x="30.3" target-y="189.3"></path><path d="M 20.60 192.20 L 28.00 192.20 L 28.00 193.20 L 20.60 193.20 Z" fill="#a1ffd2" fill-rule="nonzero" group-id="2,9,70" node-id="1240" stroke="none" target-height="1" target-width="7.3999996" target-x="20.6" target-y="192.2"></path><path d="M 23.10 194.60 L 28.90 194.60 L 28.90 195.60 L 23.10 195.60 Z" fill="#ccccde" fill-rule="nonzero" group-id="2,9,70" node-id="1242" stroke="none" target-height="1" target-width="5.799999" target-x="23.1" target-y="194.6"></path><path d="M 30.30 194.60 L 32.60 194.60 L 32.60 195.60 L 30.30 195.60 Z" fill="#ccccde" fill-rule="nonzero" group-id="2,9,70" node-id="1244" stroke="none" target-height="1" target-width="2.2999992" target-x="30.3" target-y="194.6"></path><path d="M 35.10 194.60 L 37.20 194.60 L 37.20 195.60 L 35.10 195.60 Z" fill="#ccccde" fill-rule="nonzero" group-id="2,9,70" node-id="1246" stroke="none" target-height="1" target-width="2.1000023" target-x="35.1" target-y="194.6"></path><path d="M 23.10 197.40 L 31.80 197.40 L 31.80 198.40 L 23.10 198.40 Z" fill="#fcbaff" fill-rule="nonzero" group-id="2,9,70" node-id="1248" stroke="none" target-height="1" target-width="8.699999" target-x="23.1" target-y="197.4"></path><path d="M 35.10 197.40 L 36.50 197.40 L 36.50 198.40 L 35.10 198.40 Z" fill="#ccccde" fill-rule="nonzero" group-id="2,9,70" node-id="1250" stroke="none" target-height="1" target-width="1.4000015" target-x="35.1" target-y="197.4"></path><path d="M 20.60 199.90 L 22.40 199.90 L 22.40 200.90 L 20.60 200.90 Z" fill="#ccccde" fill-rule="nonzero" group-id="2,9,70" node-id="1252" stroke="none" target-height="1" target-width="1.7999992" target-x="20.6" target-y="199.9"></path></g><g node-id="1342"><path d="M 10.00 165.70 L 16.00 165.70 L 16.00 221.20 L 10.00 221.20 Z" fill="#6e6e96" fill-opacity="0.51" fill-rule="nonzero" group-id="2,9,71" node-id="1257" stroke="none" target-height="55.5" target-width="6" target-x="10" target-y="165.7"></path></g><g node-id="1343"><path d="M 7.10 177.10 L 17.80 164.40 L 36.90 164.40 L 7.40 196.00 Z" fill="#ffffff" fill-opacity="0.17" fill-rule="nonzero" group-id="2,9,72" node-id="1262" stroke="none" target-height="31.600006" target-width="29.800001" target-x="7.1" target-y="164.4"></path></g><g node-id="1344"><path d="M 46.10 164.40 L 8.00 202.50 L 8.00 207.90 L 51.50 164.40 Z" fill="#ffffff" fill-opacity="0.2" fill-rule="nonzero" group-id="2,9,73" node-id="1267" stroke="none" target-height="43.5" target-width="43.5" target-x="8" target-y="164.4"></path></g><path d="M 44.30 235.60 L 13.60 235.60 L 10.70 235.30 L 8.60 234.60 L 7.20 233.60 L 6.10 232.10 L 5.40 230.00 L 5.20 227.10 L 5.20 160.20 L 5.40 157.30 L 6.10 155.30 L 7.20 153.80 L 8.60 152.70 L 10.70 152.00 L 13.60 151.80 L 44.30 151.80 L 47.20 152.00 L 49.30 152.70 L 50.80 153.80 L 51.80 155.30 L 52.50 157.30 L 52.80 160.20 L 52.80 227.10 L 52.50 230.00 L 51.80 232.10 L 50.80 233.60 L 49.30 234.60 L 47.20 235.30 L 44.30 235.60 Z M 13.60 154.80 L 11.50 154.90 L 9.30 155.90 L 8.30 158.20 L 8.20 160.20 L 8.30 229.20 L 8.70 230.60 L 10.20 232.00 L 13.60 232.60 L 46.40 232.40 L 47.80 232.00 L 49.20 230.60 L 49.80 227.10 L 49.80 160.20 L 49.20 156.80 L 47.80 155.30 L 44.30 154.80 L 13.60 154.80 Z" fill="#6e6e96" fill-rule="nonzero" group-id="2,9" node-id="1270" stroke="none" target-height="83.8" target-width="47.6" target-x="5.2" target-y="151.8"></path></g></g></svg>